G04 Layer_Color=16711935*
%FSLAX44Y44*%
%MOMM*%
G71*
G01*
G75*
%ADD37C,0.1000*%
D37*
X172910Y177419D02*
G03*
X172910Y177419I-4000J0D01*
G01*
X79834Y45689D02*
G03*
X79834Y45689I-5000J0D01*
G01*
X137883Y328343D02*
X148883D01*
X137883Y334343D02*
X148883D01*
Y328343D02*
Y334343D01*
X137883Y328343D02*
Y334343D01*
X47840Y333200D02*
X58840D01*
X47840Y327200D02*
X58840D01*
X47840D02*
Y333200D01*
X58840Y327200D02*
Y333200D01*
X103553Y29044D02*
Y40044D01*
X109553Y29044D02*
Y40044D01*
X103553Y29044D02*
X109553D01*
X103553Y40044D02*
X109553D01*
X313474Y171595D02*
Y205595D01*
X286474Y171595D02*
Y205595D01*
X313474D01*
X286474Y171595D02*
X313474D01*
X208552Y125565D02*
X242552D01*
X208552Y152565D02*
X242552D01*
Y125565D02*
Y152565D01*
X208552Y125565D02*
Y152565D01*
X158910Y167419D02*
X178910D01*
X158910Y187419D02*
X178910D01*
Y167419D02*
Y187419D01*
X158910Y167419D02*
Y187419D01*
X83834Y36689D02*
Y66689D01*
X53834Y36689D02*
Y66689D01*
Y36689D02*
X83834D01*
X53834Y66689D02*
X83834D01*
X174360Y29767D02*
Y51767D01*
X188860Y29767D02*
Y51767D01*
X174360Y29767D02*
X188860D01*
X174360Y51767D02*
X188860D01*
X35063Y328852D02*
Y350852D01*
X20563Y328852D02*
Y350852D01*
X35063D01*
X20563Y328852D02*
X35063D01*
X204630Y166403D02*
Y186403D01*
X224630D01*
Y166403D02*
Y186403D01*
X204630Y166403D02*
X224630D01*
X149214Y29767D02*
Y51767D01*
X163714Y29767D02*
Y51767D01*
X149214Y29767D02*
X163714D01*
X149214Y51767D02*
X163714D01*
X124830Y29513D02*
Y51513D01*
X139330Y29513D02*
Y51513D01*
X124830Y29513D02*
X139330D01*
X124830Y51513D02*
X139330D01*
X36079Y292276D02*
Y314276D01*
X21579Y292276D02*
Y314276D01*
X36079D01*
X21579Y292276D02*
X36079D01*
X63676Y340857D02*
X85676D01*
X63676Y355357D02*
X85676D01*
Y340857D02*
Y355357D01*
X63676Y340857D02*
Y355357D01*
X57834Y274839D02*
X79834D01*
X57834Y260339D02*
X79834D01*
X57834D02*
Y274839D01*
X79834Y260339D02*
Y274839D01*
X164260Y208799D02*
X186260D01*
X164260Y194299D02*
X186260D01*
X164260D02*
Y208799D01*
X186260Y194299D02*
Y208799D01*
X239508Y178421D02*
X269508D01*
Y208421D01*
X239508D02*
X269508D01*
X239508Y178421D02*
Y208421D01*
M02*
