M48
;Layer_Color=9474304
;FILE_FORMAT=2:4
INCH,LZ
;TYPE=PLATED
T1F00S00C0.0100
T2F00S00C0.0118
T3F00S00C0.0120
T4F00S00C0.0150
T5F00S00C0.0354
%
T01
X00103Y002495
X00233Y003045
X00389Y005555
X00234Y009885
X002668Y011187
X001935Y01224
X00179Y01279
X002045Y0134
X00292Y013065
X00375Y013145
X0051Y007085
X00538Y006845
X006685Y006305
X006675Y005985
X006685Y005655
X007505Y005535
Y005965
X00779Y006305
X00829
X00874Y006325
X008455Y006725
X00845Y007162
X00827Y007615
X00867Y007625
X00877Y008025
X00875Y008485
X00825
X00778Y008475
X0078Y008015
Y007635
X00739Y007305
X00704Y006305
X007505Y005095
X00932Y006485
X00975
X01011
X01046
X00902Y006945
X00827Y008025
T02
X00665Y006985
T03
X00989Y008705
X01059
X01094Y008005
X01186Y009225
T04
X00137Y010435
X004605Y010355
X00923Y012005
X010565Y012025
X01209
X014375Y00735
X014345Y005935
X0144Y004605
X006455Y00394
T05
X00079Y000695
Y001695
Y003865
X00179
Y004865
Y005865
Y006865
Y007865
Y008865
X00079
Y007865
Y006865
Y005865
Y004865
X00907Y000735
X01007
X01107
X01207
X01438Y000705
Y001705
X01431Y012685
Y013685
X00648Y014015
X00548
M30
