G04 Layer_Color=255*
%FSLAX44Y44*%
%MOMM*%
G71*
G01*
G75*
%ADD10R,0.6000X0.5000*%
%ADD11R,0.5000X0.6000*%
%ADD12R,2.8000X1.5000*%
%ADD13R,1.5000X2.8000*%
%ADD14R,0.9000X1.3000*%
%ADD15R,0.5000X0.3000*%
%ADD16R,1.4000X0.3500*%
%ADD17R,1.4000X1.1000*%
%ADD18R,0.4700X0.3500*%
%ADD19R,0.4500X1.4000*%
%ADD20R,0.4500X1.4000*%
%ADD21R,0.4500X1.4000*%
%ADD22R,1.1000X1.4000*%
%ADD23R,3.4000X1.3000*%
%ADD30C,0.7620*%
%ADD31C,0.4572*%
%ADD32R,1.5000X1.5000*%
%ADD33C,1.5000*%
%ADD34R,1.5000X1.5000*%
D10*
X148383Y331343D02*
D03*
X138383D02*
D03*
X48340Y330200D02*
D03*
X58340D02*
D03*
D11*
X106553Y29544D02*
D03*
Y39544D02*
D03*
D12*
X299974Y204095D02*
D03*
Y173095D02*
D03*
D13*
X241052Y139065D02*
D03*
X210052D02*
D03*
D14*
X168910Y177419D02*
D03*
D15*
X178910Y184919D02*
D03*
Y179919D02*
D03*
Y174919D02*
D03*
Y169919D02*
D03*
X158910D02*
D03*
Y174919D02*
D03*
Y179919D02*
D03*
Y184919D02*
D03*
D16*
X90834Y41689D02*
D03*
Y46689D02*
D03*
Y51689D02*
D03*
Y56689D02*
D03*
Y61689D02*
D03*
X46834Y41689D02*
D03*
Y46689D02*
D03*
Y51689D02*
D03*
Y56689D02*
D03*
Y61689D02*
D03*
D17*
X181610Y33267D02*
D03*
Y48267D02*
D03*
X27813Y347352D02*
D03*
Y332352D02*
D03*
X156464Y33267D02*
D03*
Y48267D02*
D03*
X132080Y33013D02*
D03*
Y48013D02*
D03*
X28829Y310776D02*
D03*
Y295776D02*
D03*
D18*
X214630Y181253D02*
D03*
Y171553D02*
D03*
X205480Y176403D02*
D03*
Y169903D02*
D03*
Y182903D02*
D03*
X223780D02*
D03*
Y169903D02*
D03*
Y176403D02*
D03*
D19*
X80870Y317959D02*
D03*
X74370D02*
D03*
X67870D02*
D03*
X61370D02*
D03*
D20*
X80870Y295959D02*
D03*
X74370Y295959D02*
D03*
X67870D02*
D03*
D21*
X61370D02*
D03*
D22*
X82176Y348107D02*
D03*
X67176D02*
D03*
X61334Y267589D02*
D03*
X76334D02*
D03*
X167760Y201549D02*
D03*
X182760D02*
D03*
D23*
X254508Y203921D02*
D03*
Y182921D02*
D03*
D30*
X116967Y263017D02*
D03*
X163957Y100076D02*
D03*
X365760Y116967D02*
D03*
X364363Y150749D02*
D03*
X365125Y186690D02*
D03*
X307086Y305435D02*
D03*
X268351D02*
D03*
X234442Y304927D02*
D03*
X34798Y265049D02*
D03*
D31*
X45466Y324866D02*
D03*
X214757Y170815D02*
D03*
X214630Y181911D02*
D03*
X169803Y143637D02*
D03*
X169549Y152019D02*
D03*
X178825Y160147D02*
D03*
X169803D02*
D03*
X265684Y164719D02*
D03*
X256794D02*
D03*
X247650D02*
D03*
X236728D02*
D03*
X222250Y215519D02*
D03*
X197612Y215265D02*
D03*
X209550Y215519D02*
D03*
X221996Y160655D02*
D03*
X210566Y160147D02*
D03*
X197866D02*
D03*
X190631Y151511D02*
D03*
Y140589D02*
D03*
Y129413D02*
D03*
X220218Y193675D02*
D03*
X210058Y193421D02*
D03*
X198120Y193929D02*
D03*
X210058Y203835D02*
D03*
X198120Y203581D02*
D03*
X222758Y203835D02*
D03*
D32*
X363474Y322199D02*
D03*
X45466Y98171D02*
D03*
X20066Y17653D02*
D03*
X365252Y17907D02*
D03*
D33*
X363474Y347599D02*
D03*
X45466Y123571D02*
D03*
Y148971D02*
D03*
Y174371D02*
D03*
Y199771D02*
D03*
Y225171D02*
D03*
X20066Y98171D02*
D03*
Y123571D02*
D03*
Y148971D02*
D03*
Y174371D02*
D03*
Y199771D02*
D03*
Y225171D02*
D03*
X139192Y355981D02*
D03*
X20066Y43053D02*
D03*
X306578Y18669D02*
D03*
X281178D02*
D03*
X255778D02*
D03*
X365252Y43307D02*
D03*
D34*
X164592Y355981D02*
D03*
X230378Y18669D02*
D03*
M02*
