G04 Layer_Color=128*
%FSLAX44Y44*%
%MOMM*%
G71*
G01*
G75*
%ADD65C,0.0508*%
D65*
X115062Y263017D02*
X118872D01*
X116967Y261112D02*
Y264922D01*
X162052Y100076D02*
X165862D01*
X163957Y98171D02*
Y101981D01*
X363855Y116967D02*
X367665D01*
X365760Y115062D02*
Y118872D01*
X362458Y150749D02*
X366268D01*
X364363Y148844D02*
Y152654D01*
X363220Y186690D02*
X367030D01*
X365125Y184785D02*
Y188595D01*
X305181Y305435D02*
X308991D01*
X307086Y303530D02*
Y307340D01*
X266446Y305435D02*
X270256D01*
X268351Y303530D02*
Y307340D01*
X232537Y304927D02*
X236347D01*
X234442Y303022D02*
Y306832D01*
X44196Y324866D02*
X46736D01*
X45466Y323596D02*
Y326136D01*
X213487Y170815D02*
X216027D01*
X214757Y169545D02*
Y172085D01*
X213360Y181911D02*
X215900D01*
X214630Y180641D02*
Y183181D01*
X168533Y143637D02*
X171073D01*
X169803Y142367D02*
Y144907D01*
X168279Y152019D02*
X170819D01*
X169549Y150749D02*
Y153289D01*
X177554Y160147D02*
X180095D01*
X178825Y158877D02*
Y161417D01*
X168533Y160147D02*
X171073D01*
X169803Y158877D02*
Y161417D01*
X32893Y265049D02*
X36703D01*
X34798Y263144D02*
Y266954D01*
X264414Y164719D02*
X266954D01*
X265684Y163449D02*
Y165989D01*
X255524Y164719D02*
X258064D01*
X256794Y163449D02*
Y165989D01*
X246380Y164719D02*
X248920D01*
X247650Y163449D02*
Y165989D01*
X235458Y164719D02*
X237998D01*
X236728Y163449D02*
Y165989D01*
X358974Y322199D02*
X367974D01*
X363474Y317699D02*
Y326699D01*
X358974Y347599D02*
X367974D01*
X363474Y343099D02*
Y352099D01*
X220980Y215519D02*
X223520D01*
X222250Y214249D02*
Y216789D01*
X196342Y215265D02*
X198882D01*
X197612Y213995D02*
Y216535D01*
X208280Y215519D02*
X210820D01*
X209550Y214249D02*
Y216789D01*
X40966Y98171D02*
X49966D01*
X45466Y93671D02*
Y102671D01*
X40966Y123571D02*
X49966D01*
X45466Y119071D02*
Y128071D01*
X40966Y148971D02*
X49966D01*
X45466Y144471D02*
Y153471D01*
X40966Y174371D02*
X49966D01*
X45466Y169871D02*
Y178871D01*
X40966Y199771D02*
X49966D01*
X45466Y195271D02*
Y204271D01*
X40966Y225171D02*
X49966D01*
X45466Y220671D02*
Y229671D01*
X15566Y98171D02*
X24566D01*
X20066Y93671D02*
Y102671D01*
X15566Y123571D02*
X24566D01*
X20066Y119071D02*
Y128071D01*
X15566Y148971D02*
X24566D01*
X20066Y144471D02*
Y153471D01*
X15566Y174371D02*
X24566D01*
X20066Y169871D02*
Y178871D01*
X15566Y199771D02*
X24566D01*
X20066Y195271D02*
Y204271D01*
X15566Y225171D02*
X24566D01*
X20066Y220671D02*
Y229671D01*
X220726Y160655D02*
X223266D01*
X221996Y159385D02*
Y161925D01*
X209296Y160147D02*
X211836D01*
X210566Y158877D02*
Y161417D01*
X196596Y160147D02*
X199136D01*
X197866Y158877D02*
Y161417D01*
X189361Y151511D02*
X191901D01*
X190631Y150241D02*
Y152781D01*
X189361Y140589D02*
X191901D01*
X190631Y139319D02*
Y141859D01*
X189361Y129413D02*
X191901D01*
X190631Y128143D02*
Y130683D01*
X218948Y193675D02*
X221488D01*
X220218Y192405D02*
Y194945D01*
X208788Y193421D02*
X211328D01*
X210058Y192151D02*
Y194691D01*
X196850Y193929D02*
X199390D01*
X198120Y192659D02*
Y195199D01*
X208788Y203835D02*
X211328D01*
X210058Y202565D02*
Y205105D01*
X196850Y203581D02*
X199390D01*
X198120Y202311D02*
Y204851D01*
X221488Y203835D02*
X224028D01*
X222758Y202565D02*
Y205105D01*
X160092Y355981D02*
X169092D01*
X164592Y351481D02*
Y360481D01*
X134692Y355981D02*
X143692D01*
X139192Y351481D02*
Y360481D01*
X15566Y17653D02*
X24566D01*
X20066Y13153D02*
Y22153D01*
X15566Y43053D02*
X24566D01*
X20066Y38553D02*
Y47553D01*
X302078Y18669D02*
X311078D01*
X306578Y14169D02*
Y23169D01*
X276678Y18669D02*
X285678D01*
X281178Y14169D02*
Y23169D01*
X251278Y18669D02*
X260278D01*
X255778Y14169D02*
Y23169D01*
X225878Y18669D02*
X234878D01*
X230378Y14169D02*
Y23169D01*
X360752Y17907D02*
X369752D01*
X365252Y13407D02*
Y22407D01*
X360752Y43307D02*
X369752D01*
X365252Y38807D02*
Y47807D01*
X186436Y185547D02*
X188976D01*
X187706Y184277D02*
Y186817D01*
X299720Y234315D02*
X302768D01*
X301244Y232791D02*
Y235839D01*
X66496Y284151D02*
X69036D01*
X67766Y282881D02*
Y285421D01*
X50673Y340360D02*
X53213D01*
X51943Y339090D02*
Y341630D01*
X167410Y177419D02*
X170410D01*
X168910Y175919D02*
Y178919D01*
X276352Y203327D02*
X279400D01*
X277876Y201803D02*
Y204851D01*
X267462Y221107D02*
X270510D01*
X268986Y219583D02*
Y222631D01*
X249682Y221107D02*
X252730D01*
X251206Y219583D02*
Y222631D01*
X93980Y333883D02*
X96520D01*
X95250Y332613D02*
Y335153D01*
X97536Y141097D02*
X100076D01*
X98806Y139827D02*
Y142367D01*
X57912Y77343D02*
X60452D01*
X59182Y76073D02*
Y78613D01*
X47872Y310903D02*
X50412D01*
X49142Y309633D02*
Y312173D01*
X135382Y173863D02*
X137922D01*
X136652Y172593D02*
Y175133D01*
X128270Y179959D02*
X130810D01*
X129540Y178689D02*
Y181229D01*
X58166Y251079D02*
X60706D01*
X59436Y249809D02*
Y252349D01*
X72898Y331851D02*
X75438D01*
X74168Y330581D02*
Y333121D01*
X24892Y63373D02*
X27432D01*
X26162Y62103D02*
Y64643D01*
X227838Y176403D02*
X230378D01*
X229108Y175133D02*
Y177673D01*
M02*
