G04 Layer_Color=255*
%FSLAX44Y44*%
%MOMM*%
G71*
G01*
G75*
%ADD30C,0.7620*%
%ADD31C,0.4572*%
%ADD32R,1.5000X1.5000*%
%ADD33C,1.5000*%
%ADD34R,1.5000X1.5000*%
D30*
X116967Y263017D02*
D03*
X163957Y100076D02*
D03*
X365760Y116967D02*
D03*
X364363Y150749D02*
D03*
X365125Y186690D02*
D03*
X307086Y305435D02*
D03*
X268351D02*
D03*
X234442Y304927D02*
D03*
X34798Y265049D02*
D03*
D31*
X45466Y324866D02*
D03*
X214757Y170815D02*
D03*
X214630Y181911D02*
D03*
X169803Y143637D02*
D03*
X169549Y152019D02*
D03*
X178825Y160147D02*
D03*
X169803D02*
D03*
X265684Y164719D02*
D03*
X256794D02*
D03*
X247650D02*
D03*
X236728D02*
D03*
X222250Y215519D02*
D03*
X197612Y215265D02*
D03*
X209550Y215519D02*
D03*
X221996Y160655D02*
D03*
X210566Y160147D02*
D03*
X197866D02*
D03*
X190631Y151511D02*
D03*
Y140589D02*
D03*
Y129413D02*
D03*
X220218Y193675D02*
D03*
X210058Y193421D02*
D03*
X198120Y193929D02*
D03*
X210058Y203835D02*
D03*
X198120Y203581D02*
D03*
X222758Y203835D02*
D03*
D32*
X363474Y322199D02*
D03*
X45466Y98171D02*
D03*
X20066Y17653D02*
D03*
X365252Y17907D02*
D03*
D33*
X363474Y347599D02*
D03*
X45466Y123571D02*
D03*
Y148971D02*
D03*
Y174371D02*
D03*
Y199771D02*
D03*
Y225171D02*
D03*
X20066Y98171D02*
D03*
Y123571D02*
D03*
Y148971D02*
D03*
Y174371D02*
D03*
Y199771D02*
D03*
Y225171D02*
D03*
X139192Y355981D02*
D03*
X20066Y43053D02*
D03*
X306578Y18669D02*
D03*
X281178D02*
D03*
X255778D02*
D03*
X365252Y43307D02*
D03*
D34*
X164592Y355981D02*
D03*
X230378Y18669D02*
D03*
M02*
