G04 Layer_Physical_Order=1*
G04 Layer_Color=255*
%FSLAX44Y44*%
%MOMM*%
G71*
G01*
G75*
%ADD10R,0.6000X0.5000*%
%ADD11R,0.3000X0.5000*%
%ADD12R,3.4000X1.3000*%
%ADD13R,1.1000X1.4000*%
%ADD14R,0.4500X1.4000*%
%ADD15R,0.4500X1.4000*%
%ADD16R,0.4500X1.4000*%
%ADD17R,1.4000X1.1000*%
%ADD18R,0.4700X0.3500*%
%ADD19R,1.4000X0.3500*%
%ADD20R,0.5000X0.3000*%
%ADD21R,0.9000X1.3000*%
%ADD22R,1.5000X2.8000*%
%ADD23R,2.8000X1.5000*%
%ADD24R,0.5000X0.6000*%
%ADD25C,0.5080*%
%ADD26C,0.2540*%
%ADD27C,0.7620*%
%ADD28C,0.3810*%
%ADD29C,1.2700*%
%ADD30R,4.8387X2.2987*%
%ADD31R,0.3780X0.4630*%
%ADD32R,0.4826X0.3048*%
%ADD33C,0.7620*%
%ADD34C,0.4572*%
%ADD35C,1.5000*%
%ADD36R,1.5000X1.5000*%
%ADD37R,1.5000X1.5000*%
%ADD38C,0.6000*%
G36*
X55620Y351022D02*
X57104Y350030D01*
Y345684D01*
X55658Y346794D01*
X53866Y347536D01*
X51943Y347790D01*
X51095Y347678D01*
X51206Y347945D01*
X51512Y350266D01*
X51225Y352443D01*
X54199D01*
X55620Y351022D01*
D02*
G37*
G36*
X130220Y364953D02*
X128203Y362325D01*
X126936Y359265D01*
X126503Y355981D01*
X126936Y352697D01*
X128203Y349637D01*
X130220Y347009D01*
X132718Y345092D01*
Y338923D01*
X130303D01*
Y323763D01*
X132718D01*
Y222265D01*
X110738Y200285D01*
X109334Y198185D01*
X108842Y195707D01*
Y85979D01*
X109334Y83501D01*
X110738Y81401D01*
X116703Y75435D01*
X113538D01*
X111060Y74943D01*
X108960Y73539D01*
X103584Y68163D01*
X102914D01*
Y68519D01*
X97308D01*
Y103475D01*
X97391Y103441D01*
X99314Y103187D01*
X101237Y103441D01*
X103029Y104183D01*
X104567Y105364D01*
X105748Y106902D01*
X106490Y108694D01*
X106744Y110617D01*
X106490Y112540D01*
X105788Y114235D01*
Y329311D01*
X105296Y331789D01*
X103892Y333889D01*
X102495Y335286D01*
X102426Y335806D01*
X101684Y337598D01*
X100504Y339137D01*
X98965Y340317D01*
X97173Y341059D01*
X95250Y341313D01*
X93327Y341059D01*
X93264Y341033D01*
Y342308D01*
X94961Y341605D01*
X97282Y341299D01*
X99603Y341605D01*
X101765Y342501D01*
X103622Y343926D01*
X105047Y345783D01*
X105943Y347945D01*
X106249Y350266D01*
X105943Y352587D01*
X105047Y354749D01*
X103622Y356606D01*
X101765Y358031D01*
X99603Y358927D01*
X97282Y359233D01*
X94961Y358927D01*
X93264Y358224D01*
Y362219D01*
X62735D01*
X61459Y363495D01*
X59359Y364899D01*
X56881Y365391D01*
X12334D01*
X9856Y364899D01*
X7756Y363495D01*
X7045Y362785D01*
Y365700D01*
X131193D01*
X130220Y364953D01*
D02*
G37*
G36*
X44513Y340360D02*
X44767Y338437D01*
X45509Y336645D01*
X45690Y336409D01*
X45961Y335044D01*
X47365Y332943D01*
X47608Y332700D01*
X45340D01*
Y331470D01*
X48340D01*
Y330200D01*
X49610D01*
Y327700D01*
X50260D01*
Y322620D01*
X51866D01*
Y320989D01*
X52211Y319254D01*
X51463Y319564D01*
X49142Y319870D01*
X40909D01*
Y321356D01*
X36780D01*
Y321772D01*
X39893D01*
Y336772D01*
Y340930D01*
X40822Y341115D01*
X42067Y341362D01*
X42545Y341299D01*
X44674Y341580D01*
X44513Y340360D01*
D02*
G37*
G36*
X89158Y338044D02*
Y338059D01*
X89170D01*
X89158Y338044D01*
D02*
G37*
G36*
X62512Y278898D02*
X62997Y278526D01*
X61114D01*
X62067Y279478D01*
X62512Y278898D01*
D02*
G37*
G36*
X89997Y328629D02*
X91535Y327449D01*
X92363Y327106D01*
X92840Y326629D01*
Y274489D01*
X91348Y275107D01*
X89027Y275413D01*
X87295Y275185D01*
Y278526D01*
X80844D01*
Y283879D01*
X81700D01*
Y288959D01*
X83120D01*
Y302959D01*
X81700D01*
Y305879D01*
X88200D01*
Y316599D01*
X88666Y317295D01*
X89158Y319773D01*
Y329722D01*
X89997Y328629D01*
D02*
G37*
G36*
X13722Y214182D02*
X16782Y212915D01*
X20066Y212482D01*
X23187Y212893D01*
X24551Y211530D01*
X23350Y212027D01*
X20066Y212460D01*
X16782Y212027D01*
X13722Y210760D01*
X13332Y210461D01*
Y214481D01*
X13722Y214182D01*
D02*
G37*
G36*
X15733Y336772D02*
Y321772D01*
X18846D01*
Y321356D01*
X16749D01*
Y300196D01*
Y285196D01*
X22355D01*
Y279273D01*
X22847Y276795D01*
X23931Y275174D01*
X24232Y272888D01*
X25128Y270726D01*
X26553Y268869D01*
X28410Y267444D01*
X30572Y266548D01*
X32893Y266242D01*
X35214Y266548D01*
X37376Y267444D01*
X39233Y268869D01*
X40658Y270726D01*
X41554Y272888D01*
X41860Y275209D01*
X41554Y277530D01*
X40658Y279692D01*
X39233Y281549D01*
X37376Y282974D01*
X35303Y283833D01*
Y285196D01*
X40909D01*
Y300196D01*
Y301936D01*
X49142D01*
X51463Y302242D01*
X53625Y303138D01*
X54040Y303456D01*
Y289764D01*
X44444Y280168D01*
X43040Y278068D01*
X42548Y275590D01*
Y254381D01*
X43040Y251903D01*
X44444Y249803D01*
X47746Y246501D01*
X49846Y245097D01*
X52324Y244605D01*
X55818D01*
X57513Y243903D01*
X59436Y243649D01*
X61359Y243903D01*
X63151Y244645D01*
X64689Y245826D01*
X65870Y247364D01*
X66612Y249156D01*
X66796Y250548D01*
X67697Y251896D01*
X68188Y254366D01*
X87295D01*
Y257707D01*
X89027Y257479D01*
X91348Y257785D01*
X92840Y258403D01*
Y208290D01*
X71380Y229749D01*
X69280Y231153D01*
X66802Y231645D01*
X56355D01*
X54438Y234143D01*
X51810Y236160D01*
X48750Y237427D01*
X45466Y237859D01*
X42182Y237427D01*
X39122Y236160D01*
X36494Y234143D01*
X34477Y231515D01*
X33210Y228455D01*
X32778Y225171D01*
X33210Y221887D01*
X33707Y220686D01*
X32344Y222050D01*
X32754Y225171D01*
X32322Y228455D01*
X31055Y231515D01*
X29038Y234143D01*
X26410Y236160D01*
X23350Y237427D01*
X20066Y237859D01*
X16782Y237427D01*
X13722Y236160D01*
X13332Y235861D01*
Y350759D01*
X15016Y352443D01*
X15733D01*
Y336772D01*
D02*
G37*
G36*
X61077Y206245D02*
X56355D01*
X56156Y206505D01*
X60818D01*
X61077Y206245D01*
D02*
G37*
G36*
X32258Y206505D02*
X34776D01*
X34477Y206115D01*
X33210Y203055D01*
X32778Y199771D01*
X33210Y196487D01*
X33707Y195286D01*
X32344Y196650D01*
X32754Y199771D01*
X32322Y203055D01*
X31055Y206115D01*
X30485Y206857D01*
X32258Y206505D01*
D02*
G37*
G36*
X61802Y193075D02*
X60687Y193297D01*
X61580D01*
X61802Y193075D01*
D02*
G37*
G36*
X13722Y188782D02*
X16782Y187515D01*
X20066Y187083D01*
X23187Y187493D01*
X24551Y186130D01*
X23350Y186627D01*
X20066Y187059D01*
X16782Y186627D01*
X13722Y185360D01*
X13332Y185061D01*
Y189081D01*
X13722Y188782D01*
D02*
G37*
G36*
X32766Y180597D02*
X34428D01*
X33210Y177655D01*
X32778Y174371D01*
X33210Y171087D01*
X34477Y168027D01*
X36494Y165399D01*
X39122Y163382D01*
X42182Y162115D01*
X45466Y161682D01*
X48750Y162115D01*
X51810Y163382D01*
X54438Y165399D01*
X56455Y168027D01*
X57722Y171087D01*
X58155Y174371D01*
X57722Y177655D01*
X56504Y180597D01*
X56754D01*
X60836Y176515D01*
Y84555D01*
X59182Y84773D01*
X57259Y84519D01*
X55564Y83817D01*
X20828D01*
X18350Y83325D01*
X16250Y81921D01*
X7045Y72716D01*
Y152836D01*
X7788Y152092D01*
X7377Y148971D01*
X7810Y145687D01*
X9077Y142627D01*
X11094Y139999D01*
X13722Y137982D01*
X16782Y136715D01*
X20066Y136283D01*
X23350Y136715D01*
X26410Y137982D01*
X29038Y139999D01*
X31055Y142627D01*
X32322Y145687D01*
X32754Y148971D01*
X32322Y152255D01*
X31055Y155315D01*
X29038Y157943D01*
X26410Y159960D01*
X23350Y161227D01*
X20066Y161660D01*
X16945Y161249D01*
X15581Y162612D01*
X16782Y162115D01*
X20066Y161682D01*
X23350Y162115D01*
X26410Y163382D01*
X29038Y165399D01*
X31055Y168027D01*
X32322Y171087D01*
X32754Y174371D01*
X32322Y177655D01*
X31055Y180715D01*
X30854Y180977D01*
X32766Y180597D01*
D02*
G37*
G36*
X18986Y65296D02*
X18732Y63373D01*
X18760Y63163D01*
X17904D01*
Y65263D01*
X19727Y67086D01*
X18986Y65296D01*
D02*
G37*
G36*
X192662Y62215D02*
Y58847D01*
X188084D01*
Y62103D01*
X187592Y64581D01*
X186188Y66681D01*
X184541Y68329D01*
X186548D01*
X192662Y62215D01*
D02*
G37*
G36*
X175136Y59421D02*
Y58847D01*
X169530D01*
Y43847D01*
Y39487D01*
X168544D01*
Y58847D01*
X162778D01*
X162446Y60517D01*
X161129Y62487D01*
X172070D01*
X175136Y59421D01*
D02*
G37*
G36*
X144384Y39487D02*
X144160D01*
Y54867D01*
X144384D01*
Y39487D01*
D02*
G37*
G36*
X382337Y7045D02*
X32646D01*
Y21077D01*
X37344Y25775D01*
X38748Y27875D01*
X39240Y30353D01*
Y39859D01*
X58914D01*
Y44859D01*
Y49859D01*
Y54859D01*
Y68519D01*
X35986D01*
X34736Y69355D01*
X32258Y69847D01*
X29780D01*
X28085Y70549D01*
X26162Y70803D01*
X24239Y70549D01*
X22449Y69808D01*
X23510Y70869D01*
X55564D01*
X57259Y70167D01*
X59182Y69913D01*
X60836Y70131D01*
Y53975D01*
X61328Y51497D01*
X62732Y49397D01*
X70018Y42111D01*
X72118Y40707D01*
X74596Y40215D01*
X78754D01*
Y39859D01*
Y34859D01*
X98973D01*
Y31464D01*
X104053D01*
Y30814D01*
X109053D01*
Y31464D01*
X114133D01*
Y31778D01*
X117476Y28435D01*
X119576Y27031D01*
X120000Y26947D01*
Y22433D01*
X144160D01*
Y26539D01*
X144384D01*
Y22687D01*
X168544D01*
Y26539D01*
X169530D01*
Y22687D01*
X193690D01*
Y26999D01*
X195130Y27285D01*
X197230Y28689D01*
X203714Y35173D01*
X205118Y37273D01*
X205610Y39751D01*
Y64897D01*
X205118Y67375D01*
X203714Y69475D01*
X193808Y79381D01*
X191708Y80785D01*
X189230Y81277D01*
X129174D01*
X121790Y88661D01*
Y193025D01*
X143770Y215005D01*
X145174Y217105D01*
X145666Y219583D01*
Y323763D01*
X146463D01*
Y328843D01*
X147113D01*
Y331343D01*
Y333843D01*
X146463D01*
Y338923D01*
X145666D01*
Y345092D01*
X148164Y347009D01*
X150181Y349637D01*
X151448Y352697D01*
X151881Y355981D01*
X151448Y359265D01*
X150181Y362325D01*
X148164Y364953D01*
X147191Y365700D01*
X382337D01*
Y7045D01*
D02*
G37*
G36*
X9726Y52111D02*
X10674Y51478D01*
X9077Y49397D01*
X7810Y46337D01*
X7377Y43053D01*
X7810Y39769D01*
X9077Y36709D01*
X11094Y34081D01*
X13722Y32064D01*
X16782Y30797D01*
X20066Y30364D01*
X23350Y30797D01*
X24551Y31294D01*
X23490Y30233D01*
X7486D01*
Y7045D01*
X7045D01*
Y54791D01*
X9726Y52111D01*
D02*
G37*
%LPC*%
G36*
X118364Y291668D02*
Y289306D01*
X120726D01*
X120683Y289523D01*
X119841Y290783D01*
X118581Y291625D01*
X118364Y291668D01*
D02*
G37*
G36*
X115824D02*
X115607Y291625D01*
X114347Y290783D01*
X113505Y289523D01*
X113462Y289306D01*
X115824D01*
Y291668D01*
D02*
G37*
G36*
X120726Y286766D02*
X118364D01*
Y284404D01*
X118581Y284447D01*
X119841Y285289D01*
X120683Y286549D01*
X120726Y286766D01*
D02*
G37*
G36*
X115824D02*
X113462D01*
X113505Y286549D01*
X114347Y285289D01*
X115607Y284447D01*
X115824Y284404D01*
Y286766D01*
D02*
G37*
G36*
X118237Y266649D02*
Y264287D01*
X120599D01*
X120556Y264504D01*
X119714Y265764D01*
X118454Y266606D01*
X118237Y266649D01*
D02*
G37*
G36*
X115697D02*
X115480Y266606D01*
X114220Y265764D01*
X113378Y264504D01*
X113335Y264287D01*
X115697D01*
Y266649D01*
D02*
G37*
G36*
X120599Y261747D02*
X118237D01*
Y259385D01*
X118454Y259428D01*
X119714Y260270D01*
X120556Y261530D01*
X120599Y261747D01*
D02*
G37*
G36*
X115697D02*
X113335D01*
X113378Y261530D01*
X114220Y260270D01*
X115480Y259428D01*
X115697Y259385D01*
Y261747D01*
D02*
G37*
G36*
X47070Y328930D02*
X45340D01*
Y327700D01*
X47070D01*
Y328930D01*
D02*
G37*
G36*
X46736Y326767D02*
Y326136D01*
X47367D01*
X47114Y326514D01*
X46736Y326767D01*
D02*
G37*
G36*
X44196D02*
X43818Y326514D01*
X43565Y326136D01*
X44196D01*
Y326767D01*
D02*
G37*
G36*
X47367Y323596D02*
X46736D01*
Y322965D01*
X47114Y323218D01*
X47367Y323596D01*
D02*
G37*
G36*
X44196D02*
X43565D01*
X43818Y323218D01*
X44196Y322965D01*
Y323596D01*
D02*
G37*
G36*
X87884Y287985D02*
Y285623D01*
X90246D01*
X90203Y285840D01*
X89361Y287100D01*
X88101Y287942D01*
X87884Y287985D01*
D02*
G37*
G36*
X85344D02*
X85127Y287942D01*
X83867Y287100D01*
X83025Y285840D01*
X82982Y285623D01*
X85344D01*
Y287985D01*
D02*
G37*
G36*
X90246Y283083D02*
X87884D01*
Y280721D01*
X88101Y280764D01*
X89361Y281606D01*
X90203Y282866D01*
X90246Y283083D01*
D02*
G37*
G36*
X85344D02*
X82982D01*
X83025Y282866D01*
X83867Y281606D01*
X85127Y280764D01*
X85344Y280721D01*
Y283083D01*
D02*
G37*
G36*
X32131Y257886D02*
Y255524D01*
X34493D01*
X34450Y255741D01*
X33608Y257001D01*
X32348Y257843D01*
X32131Y257886D01*
D02*
G37*
G36*
X29591D02*
X29374Y257843D01*
X28114Y257001D01*
X27272Y255741D01*
X27229Y255524D01*
X29591D01*
Y257886D01*
D02*
G37*
G36*
X34493Y252984D02*
X32131D01*
Y250622D01*
X32348Y250665D01*
X33608Y251507D01*
X34450Y252767D01*
X34493Y252984D01*
D02*
G37*
G36*
X29591D02*
X27229D01*
X27272Y252767D01*
X28114Y251507D01*
X29374Y250665D01*
X29591Y250622D01*
Y252984D01*
D02*
G37*
G36*
X45466Y161660D02*
X42182Y161227D01*
X39122Y159960D01*
X36494Y157943D01*
X34477Y155315D01*
X33210Y152255D01*
X32778Y148971D01*
X33210Y145687D01*
X34477Y142627D01*
X36494Y139999D01*
X39122Y137982D01*
X42182Y136715D01*
X45466Y136283D01*
X48750Y136715D01*
X51810Y137982D01*
X54438Y139999D01*
X56455Y142627D01*
X57722Y145687D01*
X58155Y148971D01*
X57722Y152255D01*
X56455Y155315D01*
X54438Y157943D01*
X51810Y159960D01*
X48750Y161227D01*
X45466Y161660D01*
D02*
G37*
G36*
X46736Y130969D02*
Y124841D01*
X52863D01*
X52773Y125529D01*
X52017Y127353D01*
X50815Y128920D01*
X49248Y130122D01*
X47424Y130878D01*
X46736Y130969D01*
D02*
G37*
G36*
X21336D02*
Y124841D01*
X27464D01*
X27373Y125529D01*
X26617Y127353D01*
X25415Y128920D01*
X23848Y130122D01*
X22024Y130878D01*
X21336Y130969D01*
D02*
G37*
G36*
X44196D02*
X43508Y130878D01*
X41684Y130122D01*
X40117Y128920D01*
X38915Y127353D01*
X38159Y125529D01*
X38068Y124841D01*
X44196D01*
Y130969D01*
D02*
G37*
G36*
X18796D02*
X18108Y130878D01*
X16284Y130122D01*
X14717Y128920D01*
X13515Y127353D01*
X12759Y125529D01*
X12668Y124841D01*
X18796D01*
Y130969D01*
D02*
G37*
G36*
X52863Y122301D02*
X46736D01*
Y116173D01*
X47424Y116264D01*
X49248Y117020D01*
X50815Y118222D01*
X52017Y119789D01*
X52773Y121613D01*
X52863Y122301D01*
D02*
G37*
G36*
X27464D02*
X21336D01*
Y116173D01*
X22024Y116264D01*
X23848Y117020D01*
X25415Y118222D01*
X26617Y119789D01*
X27373Y121613D01*
X27464Y122301D01*
D02*
G37*
G36*
X44196D02*
X38068D01*
X38159Y121613D01*
X38915Y119789D01*
X40117Y118222D01*
X41684Y117020D01*
X43508Y116264D01*
X44196Y116173D01*
Y122301D01*
D02*
G37*
G36*
X18796D02*
X12668D01*
X12759Y121613D01*
X13515Y119789D01*
X14717Y118222D01*
X16284Y117020D01*
X18108Y116264D01*
X18796Y116173D01*
Y122301D01*
D02*
G37*
G36*
X58046Y110751D02*
X32886D01*
Y85591D01*
X58046D01*
Y110751D01*
D02*
G37*
G36*
X20066Y110859D02*
X16782Y110427D01*
X13722Y109160D01*
X11094Y107143D01*
X9077Y104515D01*
X7810Y101455D01*
X7377Y98171D01*
X7810Y94887D01*
X9077Y91827D01*
X11094Y89199D01*
X13722Y87182D01*
X16782Y85915D01*
X20066Y85483D01*
X23350Y85915D01*
X26410Y87182D01*
X29038Y89199D01*
X31055Y91827D01*
X32322Y94887D01*
X32754Y98171D01*
X32322Y101455D01*
X31055Y104515D01*
X29038Y107143D01*
X26410Y109160D01*
X23350Y110427D01*
X20066Y110859D01*
D02*
G37*
G36*
X172092Y363481D02*
X165862D01*
Y357251D01*
X172092D01*
Y363481D01*
D02*
G37*
G36*
X163322D02*
X157092D01*
Y357251D01*
X163322D01*
Y363481D01*
D02*
G37*
G36*
X364744Y354996D02*
Y348869D01*
X370872D01*
X370781Y349557D01*
X370025Y351381D01*
X368823Y352948D01*
X367256Y354150D01*
X365432Y354906D01*
X364744Y354996D01*
D02*
G37*
G36*
X362204D02*
X361516Y354906D01*
X359692Y354150D01*
X358125Y352948D01*
X356923Y351381D01*
X356167Y349557D01*
X356077Y348869D01*
X362204D01*
Y354996D01*
D02*
G37*
G36*
X172092Y354711D02*
X165862D01*
Y348481D01*
X172092D01*
Y354711D01*
D02*
G37*
G36*
X163322D02*
X157092D01*
Y348481D01*
X163322D01*
Y354711D01*
D02*
G37*
G36*
X370872Y346329D02*
X364744D01*
Y340201D01*
X365432Y340292D01*
X367256Y341048D01*
X368823Y342250D01*
X370025Y343817D01*
X370781Y345641D01*
X370872Y346329D01*
D02*
G37*
G36*
X362204D02*
X356077D01*
X356167Y345641D01*
X356923Y343817D01*
X358125Y342250D01*
X359692Y341048D01*
X361516Y340292D01*
X362204Y340201D01*
Y346329D01*
D02*
G37*
G36*
X151383Y333843D02*
X149653D01*
Y332613D01*
X151383D01*
Y333843D01*
D02*
G37*
G36*
Y330073D02*
X149653D01*
Y328843D01*
X151383D01*
Y330073D01*
D02*
G37*
G36*
X308356Y309067D02*
Y306705D01*
X310718D01*
X310675Y306922D01*
X309833Y308182D01*
X308573Y309024D01*
X308356Y309067D01*
D02*
G37*
G36*
X305816D02*
X305599Y309024D01*
X304339Y308182D01*
X303497Y306922D01*
X303454Y306705D01*
X305816D01*
Y309067D01*
D02*
G37*
G36*
X269621D02*
Y306705D01*
X271983D01*
X271940Y306922D01*
X271098Y308182D01*
X269838Y309024D01*
X269621Y309067D01*
D02*
G37*
G36*
X267081D02*
X266864Y309024D01*
X265604Y308182D01*
X264762Y306922D01*
X264719Y306705D01*
X267081D01*
Y309067D01*
D02*
G37*
G36*
X235712Y308559D02*
Y306197D01*
X238074D01*
X238031Y306414D01*
X237189Y307674D01*
X235929Y308516D01*
X235712Y308559D01*
D02*
G37*
G36*
X233172D02*
X232955Y308516D01*
X231695Y307674D01*
X230853Y306414D01*
X230810Y306197D01*
X233172D01*
Y308559D01*
D02*
G37*
G36*
X310718Y304165D02*
X308356D01*
Y301803D01*
X308573Y301846D01*
X309833Y302688D01*
X310675Y303948D01*
X310718Y304165D01*
D02*
G37*
G36*
X305816D02*
X303454D01*
X303497Y303948D01*
X304339Y302688D01*
X305599Y301846D01*
X305816Y301803D01*
Y304165D01*
D02*
G37*
G36*
X271983D02*
X269621D01*
Y301803D01*
X269838Y301846D01*
X271098Y302688D01*
X271940Y303948D01*
X271983Y304165D01*
D02*
G37*
G36*
X267081D02*
X264719D01*
X264762Y303948D01*
X265604Y302688D01*
X266864Y301846D01*
X267081Y301803D01*
Y304165D01*
D02*
G37*
G36*
X238074Y303657D02*
X235712D01*
Y301295D01*
X235929Y301338D01*
X237189Y302180D01*
X238031Y303440D01*
X238074Y303657D01*
D02*
G37*
G36*
X233172D02*
X230810D01*
X230853Y303440D01*
X231695Y302180D01*
X232955Y301338D01*
X233172Y301295D01*
Y303657D01*
D02*
G37*
G36*
X376054Y334779D02*
X350894D01*
Y309619D01*
X351945D01*
Y248638D01*
X342585D01*
Y254889D01*
X342323Y256878D01*
X341780Y258189D01*
X341555Y258732D01*
X340334Y260324D01*
X330555Y270103D01*
X328963Y271324D01*
X328420Y271549D01*
X327109Y272092D01*
X325120Y272354D01*
X304942D01*
X304838Y272433D01*
X302676Y273329D01*
X300355Y273635D01*
X298034Y273329D01*
X295872Y272433D01*
X294015Y271008D01*
X292590Y269151D01*
X291694Y266989D01*
X291388Y264668D01*
X291694Y262347D01*
X292590Y260185D01*
X294015Y258328D01*
X295872Y256903D01*
X298034Y256007D01*
X300355Y255701D01*
X302676Y256007D01*
X304838Y256903D01*
X304942Y256982D01*
X321936D01*
X327213Y251705D01*
Y248638D01*
X320929D01*
X318947Y248244D01*
X317267Y247122D01*
X316746Y246342D01*
X316180Y246720D01*
X314198Y247115D01*
X246380D01*
X246380Y247115D01*
X244398Y246720D01*
X242717Y245597D01*
X234081Y236961D01*
X233827Y236707D01*
X232705Y235027D01*
X232311Y233045D01*
Y230422D01*
X231394Y230604D01*
X186036D01*
X184054Y230210D01*
X182374Y229088D01*
X181251Y227407D01*
X180856Y225425D01*
Y213629D01*
X157180D01*
Y200125D01*
X154332Y197277D01*
X152928Y195177D01*
X152436Y192699D01*
Y191499D01*
X151330D01*
Y186433D01*
X133158D01*
X131463Y187135D01*
X129540Y187389D01*
X127617Y187135D01*
X125825Y186393D01*
X124286Y185212D01*
X123106Y183674D01*
X122364Y181882D01*
X122110Y179959D01*
X122364Y178036D01*
X123106Y176244D01*
X124286Y174706D01*
X125825Y173525D01*
X127617Y172783D01*
X129396Y172549D01*
X129476Y171940D01*
X130218Y170148D01*
X131398Y168610D01*
X132937Y167429D01*
X134729Y166687D01*
X136652Y166433D01*
X138575Y166687D01*
X140270Y167389D01*
X145796D01*
X148274Y167881D01*
X149116Y168445D01*
X151285D01*
Y165591D01*
X151224Y165133D01*
Y139159D01*
X151486Y137170D01*
X152254Y135316D01*
X153475Y133724D01*
X163983Y123216D01*
X163983Y123216D01*
X164674Y122686D01*
X165575Y121995D01*
X166886Y121452D01*
X167429Y121227D01*
X167660Y121197D01*
X169418Y120965D01*
X169418Y120965D01*
X177411D01*
X177948Y120162D01*
X179628Y119040D01*
X181610Y118645D01*
X198523D01*
Y113925D01*
X198916Y110941D01*
X199591Y109312D01*
X200068Y108161D01*
X201900Y105773D01*
X220702Y86971D01*
X223090Y85139D01*
X224241Y84662D01*
X225870Y83987D01*
X228854Y83594D01*
X228854Y83594D01*
X308661D01*
X353536Y38719D01*
X354263Y36963D01*
X356280Y34335D01*
X358908Y32318D01*
X361968Y31051D01*
X365252Y30619D01*
X368536Y31051D01*
X371596Y32318D01*
X374224Y34335D01*
X376241Y36963D01*
X377508Y40023D01*
X377940Y43307D01*
X377508Y46591D01*
X376241Y49651D01*
X374224Y52279D01*
X371596Y54296D01*
X369840Y55023D01*
X321588Y103275D01*
X319200Y105107D01*
X318049Y105584D01*
X316420Y106259D01*
X313436Y106652D01*
X233629D01*
X221581Y118700D01*
Y119985D01*
X222632D01*
Y149804D01*
X228937Y152625D01*
X229703Y153168D01*
X230485Y153691D01*
X230525Y153752D01*
X230585Y153794D01*
X231085Y154590D01*
X231607Y155371D01*
X231622Y155443D01*
X231661Y155506D01*
X231689Y155669D01*
X232664Y155476D01*
X269494D01*
X271476Y155870D01*
X273157Y156993D01*
X275189Y159024D01*
X276311Y160705D01*
X276705Y162687D01*
Y189611D01*
X276588Y190202D01*
Y192052D01*
X280894D01*
Y191515D01*
X319054D01*
Y195350D01*
X319377Y196977D01*
Y213090D01*
X320953D01*
Y211170D01*
X323953D01*
Y213090D01*
X329033D01*
Y215292D01*
X369316D01*
X371298Y215687D01*
X372979Y216810D01*
X374101Y218490D01*
X374496Y220472D01*
Y234103D01*
X374610Y234379D01*
X375003Y237363D01*
Y309619D01*
X376054D01*
Y334779D01*
D02*
G37*
G36*
X366395Y190322D02*
Y187960D01*
X368757D01*
X368714Y188177D01*
X367872Y189437D01*
X366612Y190279D01*
X366395Y190322D01*
D02*
G37*
G36*
X363855D02*
X363638Y190279D01*
X362378Y189437D01*
X361536Y188177D01*
X361493Y187960D01*
X363855D01*
Y190322D01*
D02*
G37*
G36*
X368757Y185420D02*
X366395D01*
Y183058D01*
X366612Y183101D01*
X367872Y183943D01*
X368714Y185203D01*
X368757Y185420D01*
D02*
G37*
G36*
X363855D02*
X361493D01*
X361536Y185203D01*
X362378Y183943D01*
X363638Y183101D01*
X363855Y183058D01*
Y185420D01*
D02*
G37*
G36*
X313974Y180595D02*
X301244D01*
Y174365D01*
X313974D01*
Y180595D01*
D02*
G37*
G36*
X298704D02*
X285974D01*
Y174365D01*
X298704D01*
Y180595D01*
D02*
G37*
G36*
X313974Y171825D02*
X301244D01*
Y165595D01*
X313974D01*
Y171825D01*
D02*
G37*
G36*
X298704D02*
X285974D01*
Y165595D01*
X298704D01*
Y171825D01*
D02*
G37*
G36*
X365633Y154381D02*
Y152019D01*
X367995D01*
X367952Y152236D01*
X367110Y153496D01*
X365850Y154338D01*
X365633Y154381D01*
D02*
G37*
G36*
X363093D02*
X362876Y154338D01*
X361616Y153496D01*
X360774Y152236D01*
X360731Y152019D01*
X363093D01*
Y154381D01*
D02*
G37*
G36*
X367995Y149479D02*
X365633D01*
Y147117D01*
X365850Y147160D01*
X367110Y148002D01*
X367952Y149262D01*
X367995Y149479D01*
D02*
G37*
G36*
X363093D02*
X360731D01*
X360774Y149262D01*
X361616Y148002D01*
X362876Y147160D01*
X363093Y147117D01*
Y149479D01*
D02*
G37*
G36*
X248552Y153065D02*
X242322D01*
Y140335D01*
X248552D01*
Y153065D01*
D02*
G37*
G36*
X239782D02*
X233552D01*
Y140335D01*
X239782D01*
Y153065D01*
D02*
G37*
G36*
X248552Y137795D02*
X242322D01*
Y125065D01*
X248552D01*
Y137795D01*
D02*
G37*
G36*
X239782D02*
X233552D01*
Y125065D01*
X239782D01*
Y137795D01*
D02*
G37*
G36*
X367030Y120599D02*
Y118237D01*
X369392D01*
X369349Y118454D01*
X368507Y119714D01*
X367247Y120556D01*
X367030Y120599D01*
D02*
G37*
G36*
X364490D02*
X364273Y120556D01*
X363013Y119714D01*
X362171Y118454D01*
X362128Y118237D01*
X364490D01*
Y120599D01*
D02*
G37*
G36*
X369392Y115697D02*
X367030D01*
Y113335D01*
X367247Y113378D01*
X368507Y114220D01*
X369349Y115480D01*
X369392Y115697D01*
D02*
G37*
G36*
X364490D02*
X362128D01*
X362171Y115480D01*
X363013Y114220D01*
X364273Y113378D01*
X364490Y113335D01*
Y115697D01*
D02*
G37*
G36*
X165227Y103708D02*
Y101346D01*
X167589D01*
X167546Y101563D01*
X166704Y102823D01*
X165444Y103665D01*
X165227Y103708D01*
D02*
G37*
G36*
X162687D02*
X162470Y103665D01*
X161210Y102823D01*
X160368Y101563D01*
X160325Y101346D01*
X162687D01*
Y103708D01*
D02*
G37*
G36*
X167589Y98806D02*
X165227D01*
Y96444D01*
X165444Y96487D01*
X166704Y97329D01*
X167546Y98589D01*
X167589Y98806D01*
D02*
G37*
G36*
X162687D02*
X160325D01*
X160368Y98589D01*
X161210Y97329D01*
X162470Y96487D01*
X162687Y96444D01*
Y98806D01*
D02*
G37*
G36*
X109053Y28274D02*
X107823D01*
Y26544D01*
X109053D01*
Y28274D01*
D02*
G37*
G36*
X105283D02*
X104053D01*
Y26544D01*
X105283D01*
Y28274D01*
D02*
G37*
G36*
X307848Y26067D02*
Y19939D01*
X313976D01*
X313885Y20627D01*
X313129Y22451D01*
X311927Y24018D01*
X310360Y25220D01*
X308536Y25976D01*
X307848Y26067D01*
D02*
G37*
G36*
X305308D02*
X304620Y25976D01*
X302796Y25220D01*
X301229Y24018D01*
X300027Y22451D01*
X299271Y20627D01*
X299181Y19939D01*
X305308D01*
Y26067D01*
D02*
G37*
G36*
X282448D02*
Y19939D01*
X288575D01*
X288485Y20627D01*
X287729Y22451D01*
X286527Y24018D01*
X284960Y25220D01*
X283136Y25976D01*
X282448Y26067D01*
D02*
G37*
G36*
X279908D02*
X279220Y25976D01*
X277396Y25220D01*
X275829Y24018D01*
X274627Y22451D01*
X273871Y20627D01*
X273780Y19939D01*
X279908D01*
Y26067D01*
D02*
G37*
G36*
X257048D02*
Y19939D01*
X263176D01*
X263085Y20627D01*
X262329Y22451D01*
X261127Y24018D01*
X259560Y25220D01*
X257736Y25976D01*
X257048Y26067D01*
D02*
G37*
G36*
X254508D02*
X253820Y25976D01*
X251996Y25220D01*
X250429Y24018D01*
X249227Y22451D01*
X248471Y20627D01*
X248381Y19939D01*
X254508D01*
Y26067D01*
D02*
G37*
G36*
X237878Y26169D02*
X231648D01*
Y19939D01*
X237878D01*
Y26169D01*
D02*
G37*
G36*
X229108D02*
X222878D01*
Y19939D01*
X229108D01*
Y26169D01*
D02*
G37*
G36*
X372752Y25407D02*
X366522D01*
Y19177D01*
X372752D01*
Y25407D01*
D02*
G37*
G36*
X363982D02*
X357752D01*
Y19177D01*
X363982D01*
Y25407D01*
D02*
G37*
G36*
X313976Y17399D02*
X307848D01*
Y11272D01*
X308536Y11362D01*
X310360Y12118D01*
X311927Y13320D01*
X313129Y14887D01*
X313885Y16711D01*
X313976Y17399D01*
D02*
G37*
G36*
X305308D02*
X299181D01*
X299271Y16711D01*
X300027Y14887D01*
X301229Y13320D01*
X302796Y12118D01*
X304620Y11362D01*
X305308Y11272D01*
Y17399D01*
D02*
G37*
G36*
X288575D02*
X282448D01*
Y11272D01*
X283136Y11362D01*
X284960Y12118D01*
X286527Y13320D01*
X287729Y14887D01*
X288485Y16711D01*
X288575Y17399D01*
D02*
G37*
G36*
X279908D02*
X273780D01*
X273871Y16711D01*
X274627Y14887D01*
X275829Y13320D01*
X277396Y12118D01*
X279220Y11362D01*
X279908Y11272D01*
Y17399D01*
D02*
G37*
G36*
X263176D02*
X257048D01*
Y11272D01*
X257736Y11362D01*
X259560Y12118D01*
X261127Y13320D01*
X262329Y14887D01*
X263085Y16711D01*
X263176Y17399D01*
D02*
G37*
G36*
X254508D02*
X248381D01*
X248471Y16711D01*
X249227Y14887D01*
X250429Y13320D01*
X251996Y12118D01*
X253820Y11362D01*
X254508Y11272D01*
Y17399D01*
D02*
G37*
G36*
X237878D02*
X231648D01*
Y11169D01*
X237878D01*
Y17399D01*
D02*
G37*
G36*
X229108D02*
X222878D01*
Y11169D01*
X229108D01*
Y17399D01*
D02*
G37*
G36*
X372752Y16637D02*
X366522D01*
Y10407D01*
X372752D01*
Y16637D01*
D02*
G37*
G36*
X363982D02*
X357752D01*
Y10407D01*
X363982D01*
Y16637D01*
D02*
G37*
%LPD*%
G36*
X369823Y237702D02*
X369475Y235055D01*
X369482Y234939D01*
X369316Y234103D01*
Y221361D01*
X369189Y221234D01*
X369316Y221107D01*
Y220982D01*
X369231Y220557D01*
X368806Y220472D01*
X337030D01*
X336296Y221206D01*
X334899Y220726D01*
Y245999D01*
X334010Y246888D01*
X336804Y249682D01*
X337405D01*
Y248638D01*
X337799Y246656D01*
X338922Y244976D01*
X340603Y243853D01*
X342585Y243459D01*
X351945D01*
X353927Y243853D01*
X355608Y244976D01*
X356731Y246656D01*
X357125Y248638D01*
Y249682D01*
X369823D01*
Y237702D01*
D02*
G37*
G36*
X314198Y196977D02*
X313974Y196753D01*
Y202825D01*
X299974D01*
X285974D01*
Y197231D01*
X237490D01*
Y197485D01*
Y233045D01*
X237744Y233299D01*
X246380Y241935D01*
X314198D01*
Y196977D01*
D02*
G37*
G36*
X203130Y183233D02*
X200276D01*
Y184459D01*
X200418Y184554D01*
X203130D01*
Y183233D01*
D02*
G37*
G36*
X231394Y189611D02*
X271526D01*
Y162687D01*
X269494Y160655D01*
X232664D01*
Y161417D01*
X229361Y164720D01*
X229316Y164944D01*
X229228Y165424D01*
X229218Y165439D01*
X229215Y165456D01*
X228943Y165862D01*
X228677Y166272D01*
X228663Y166282D01*
X228653Y166296D01*
X228248Y166567D01*
X227845Y166844D01*
X227827Y166848D01*
X227813Y166858D01*
X227334Y166953D01*
X227073Y167008D01*
X226060Y168021D01*
Y168153D01*
X226130D01*
Y168633D01*
X223780D01*
Y171173D01*
X226130D01*
Y171577D01*
X228633D01*
X229108Y171483D01*
X229583Y171577D01*
X233426D01*
Y172085D01*
Y174179D01*
X233654Y174520D01*
X234028Y176403D01*
X233654Y178286D01*
X233426Y178627D01*
Y179451D01*
X232664Y180213D01*
X231648Y181229D01*
X229583D01*
X229108Y181324D01*
X228633Y181229D01*
X226130D01*
Y181633D01*
X223780D01*
Y184173D01*
X226130D01*
Y184653D01*
X225806D01*
Y185103D01*
X220130Y185103D01*
Y180693D01*
Y177403D01*
X209130D01*
Y185103D01*
X212910D01*
Y189733D01*
X198050D01*
Y189081D01*
X197062Y188885D01*
X194962Y187481D01*
X194552Y187071D01*
X193040D01*
X191388Y188723D01*
X191185Y189026D01*
X190882Y189229D01*
X186036Y194075D01*
Y194549D01*
X188260D01*
Y200279D01*
X182760D01*
Y202819D01*
X188260D01*
Y208549D01*
X186036D01*
Y225425D01*
X231394D01*
Y189611D01*
D02*
G37*
G36*
X171330Y183919D02*
X170180D01*
Y177419D01*
Y170919D01*
X171330D01*
Y163339D01*
X186113D01*
X177948Y155174D01*
X176825Y153493D01*
X176430Y151511D01*
Y136337D01*
X172602D01*
X166596Y142343D01*
Y165133D01*
X166490Y165936D01*
Y168339D01*
Y170919D01*
X167640D01*
Y177419D01*
Y183919D01*
X166490D01*
Y189469D01*
X171330D01*
Y183919D01*
D02*
G37*
G36*
X220130Y167703D02*
X218890D01*
Y165613D01*
X220130D01*
Y164553D01*
X226822Y164465D01*
Y157353D01*
X217237Y153065D01*
X211322D01*
Y139065D01*
Y125065D01*
X217170D01*
Y123825D01*
X181610D01*
Y151511D01*
X194564Y164465D01*
X209296D01*
Y167537D01*
X209130Y167703D01*
Y175403D01*
X220130D01*
Y167703D01*
D02*
G37*
%LPC*%
G36*
X302260Y236089D02*
Y235458D01*
X302891D01*
X302638Y235836D01*
X302260Y236089D01*
D02*
G37*
G36*
X299720D02*
X299342Y235836D01*
X299089Y235458D01*
X299720D01*
Y236089D01*
D02*
G37*
G36*
X270002Y235200D02*
Y234569D01*
X270633D01*
X270380Y234947D01*
X270002Y235200D01*
D02*
G37*
G36*
X267462D02*
X267084Y234947D01*
X266831Y234569D01*
X267462D01*
Y235200D01*
D02*
G37*
G36*
X313214Y233894D02*
X311484D01*
Y232664D01*
X313214D01*
Y233894D01*
D02*
G37*
G36*
X308944D02*
X307214D01*
Y232664D01*
X308944D01*
Y233894D01*
D02*
G37*
G36*
X302891Y232918D02*
X302260D01*
Y232287D01*
X302638Y232540D01*
X302891Y232918D01*
D02*
G37*
G36*
X299720D02*
X299089D01*
X299342Y232540D01*
X299720Y232287D01*
Y232918D01*
D02*
G37*
G36*
X270633Y232029D02*
X270002D01*
Y231398D01*
X270380Y231651D01*
X270633Y232029D01*
D02*
G37*
G36*
X267462D02*
X266831D01*
X267084Y231651D01*
X267462Y231398D01*
Y232029D01*
D02*
G37*
G36*
X313214Y230124D02*
X311484D01*
Y228894D01*
X313214D01*
Y230124D01*
D02*
G37*
G36*
X308944D02*
X307214D01*
Y228894D01*
X308944D01*
Y230124D01*
D02*
G37*
G36*
X252603Y223135D02*
Y222504D01*
X253234D01*
X252981Y222882D01*
X252603Y223135D01*
D02*
G37*
G36*
X250063D02*
X249685Y222882D01*
X249432Y222504D01*
X250063D01*
Y223135D01*
D02*
G37*
G36*
X270256Y223008D02*
Y222377D01*
X270887D01*
X270634Y222755D01*
X270256Y223008D01*
D02*
G37*
G36*
X267716D02*
X267338Y222755D01*
X267085Y222377D01*
X267716D01*
Y223008D01*
D02*
G37*
G36*
X253234Y219964D02*
X252603D01*
Y219333D01*
X252981Y219586D01*
X253234Y219964D01*
D02*
G37*
G36*
X250063D02*
X249432D01*
X249685Y219586D01*
X250063Y219333D01*
Y219964D01*
D02*
G37*
G36*
X270887Y219837D02*
X270256D01*
Y219206D01*
X270634Y219459D01*
X270887Y219837D01*
D02*
G37*
G36*
X267716D02*
X267085D01*
X267338Y219459D01*
X267716Y219206D01*
Y219837D01*
D02*
G37*
G36*
X313974Y211595D02*
X301244D01*
Y205365D01*
X313974D01*
Y211595D01*
D02*
G37*
G36*
X298704D02*
X285974D01*
Y205365D01*
X298704D01*
Y211595D01*
D02*
G37*
G36*
X271508Y210421D02*
X255778D01*
Y205191D01*
X271508D01*
Y210421D01*
D02*
G37*
G36*
X253238D02*
X237508D01*
Y205191D01*
X253238D01*
Y210421D01*
D02*
G37*
G36*
X271508Y202651D02*
X255778D01*
Y197421D01*
X271508D01*
Y202651D01*
D02*
G37*
G36*
X253238D02*
X237508D01*
Y197421D01*
X253238D01*
Y202651D01*
D02*
G37*
G36*
X223520Y217420D02*
Y216789D01*
X224151D01*
X223898Y217167D01*
X223520Y217420D01*
D02*
G37*
G36*
X220980D02*
X220602Y217167D01*
X220349Y216789D01*
X220980D01*
Y217420D01*
D02*
G37*
G36*
X210820D02*
Y216789D01*
X211451D01*
X211198Y217167D01*
X210820Y217420D01*
D02*
G37*
G36*
X208280D02*
X207902Y217167D01*
X207649Y216789D01*
X208280D01*
Y217420D01*
D02*
G37*
G36*
X198882Y217166D02*
Y216535D01*
X199513D01*
X199260Y216913D01*
X198882Y217166D01*
D02*
G37*
G36*
X196342D02*
X195964Y216913D01*
X195711Y216535D01*
X196342D01*
Y217166D01*
D02*
G37*
G36*
X224151Y214249D02*
X223520D01*
Y213618D01*
X223898Y213871D01*
X224151Y214249D01*
D02*
G37*
G36*
X220980D02*
X220349D01*
X220602Y213871D01*
X220980Y213618D01*
Y214249D01*
D02*
G37*
G36*
X211451D02*
X210820D01*
Y213618D01*
X211198Y213871D01*
X211451Y214249D01*
D02*
G37*
G36*
X208280D02*
X207649D01*
X207902Y213871D01*
X208280Y213618D01*
Y214249D01*
D02*
G37*
G36*
X199513Y213995D02*
X198882D01*
Y213364D01*
X199260Y213617D01*
X199513Y213995D01*
D02*
G37*
G36*
X196342D02*
X195711D01*
X195964Y213617D01*
X196342Y213364D01*
Y213995D01*
D02*
G37*
G36*
X224028Y205736D02*
Y205105D01*
X224659D01*
X224406Y205483D01*
X224028Y205736D01*
D02*
G37*
G36*
X221488D02*
X221110Y205483D01*
X220857Y205105D01*
X221488D01*
Y205736D01*
D02*
G37*
G36*
X211328D02*
Y205105D01*
X211959D01*
X211706Y205483D01*
X211328Y205736D01*
D02*
G37*
G36*
X208788D02*
X208410Y205483D01*
X208157Y205105D01*
X208788D01*
Y205736D01*
D02*
G37*
G36*
X199390Y205482D02*
Y204851D01*
X200021D01*
X199768Y205229D01*
X199390Y205482D01*
D02*
G37*
G36*
X196850D02*
X196472Y205229D01*
X196219Y204851D01*
X196850D01*
Y205482D01*
D02*
G37*
G36*
X224659Y202565D02*
X224028D01*
Y201934D01*
X224406Y202187D01*
X224659Y202565D01*
D02*
G37*
G36*
X221488D02*
X220857D01*
X221110Y202187D01*
X221488Y201934D01*
Y202565D01*
D02*
G37*
G36*
X211959D02*
X211328D01*
Y201934D01*
X211706Y202187D01*
X211959Y202565D01*
D02*
G37*
G36*
X208788D02*
X208157D01*
X208410Y202187D01*
X208788Y201934D01*
Y202565D01*
D02*
G37*
G36*
X200021Y202311D02*
X199390D01*
Y201680D01*
X199768Y201933D01*
X200021Y202311D01*
D02*
G37*
G36*
X196850D02*
X196219D01*
X196472Y201933D01*
X196850Y201680D01*
Y202311D01*
D02*
G37*
G36*
X199390Y195830D02*
Y195199D01*
X200021D01*
X199768Y195577D01*
X199390Y195830D01*
D02*
G37*
G36*
X196850D02*
X196472Y195577D01*
X196219Y195199D01*
X196850D01*
Y195830D01*
D02*
G37*
G36*
X221488Y195576D02*
Y194945D01*
X222119D01*
X221866Y195323D01*
X221488Y195576D01*
D02*
G37*
G36*
X218948D02*
X218570Y195323D01*
X218317Y194945D01*
X218948D01*
Y195576D01*
D02*
G37*
G36*
X211328Y195322D02*
Y194691D01*
X211959D01*
X211706Y195069D01*
X211328Y195322D01*
D02*
G37*
G36*
X208788D02*
X208410Y195069D01*
X208157Y194691D01*
X208788D01*
Y195322D01*
D02*
G37*
G36*
X200021Y192659D02*
X199390D01*
Y192028D01*
X199768Y192281D01*
X200021Y192659D01*
D02*
G37*
G36*
X196850D02*
X196219D01*
X196472Y192281D01*
X196850Y192028D01*
Y192659D01*
D02*
G37*
G36*
X222119Y192405D02*
X221488D01*
Y191774D01*
X221866Y192027D01*
X222119Y192405D01*
D02*
G37*
G36*
X218948D02*
X218317D01*
X218570Y192027D01*
X218948Y191774D01*
Y192405D01*
D02*
G37*
G36*
X211959Y192151D02*
X211328D01*
Y191520D01*
X211706Y191773D01*
X211959Y192151D01*
D02*
G37*
G36*
X208788D02*
X208157D01*
X208410Y191773D01*
X208788Y191520D01*
Y192151D01*
D02*
G37*
G36*
X271508Y189421D02*
X255778D01*
Y184191D01*
X271508D01*
Y189421D01*
D02*
G37*
G36*
X253238D02*
X237508D01*
Y184191D01*
X253238D01*
Y189421D01*
D02*
G37*
G36*
X271508Y181651D02*
X255778D01*
Y176421D01*
X271508D01*
Y181651D01*
D02*
G37*
G36*
X253238D02*
X237508D01*
Y176421D01*
X253238D01*
Y181651D01*
D02*
G37*
G36*
X266954Y166620D02*
Y165989D01*
X267585D01*
X267332Y166367D01*
X266954Y166620D01*
D02*
G37*
G36*
X264414D02*
X264036Y166367D01*
X263783Y165989D01*
X264414D01*
Y166620D01*
D02*
G37*
G36*
X258064D02*
Y165989D01*
X258695D01*
X258442Y166367D01*
X258064Y166620D01*
D02*
G37*
G36*
X255524D02*
X255146Y166367D01*
X254893Y165989D01*
X255524D01*
Y166620D01*
D02*
G37*
G36*
X248920D02*
Y165989D01*
X249551D01*
X249298Y166367D01*
X248920Y166620D01*
D02*
G37*
G36*
X246380D02*
X246002Y166367D01*
X245749Y165989D01*
X246380D01*
Y166620D01*
D02*
G37*
G36*
X237998D02*
Y165989D01*
X238629D01*
X238376Y166367D01*
X237998Y166620D01*
D02*
G37*
G36*
X235458D02*
X235080Y166367D01*
X234827Y165989D01*
X235458D01*
Y166620D01*
D02*
G37*
G36*
X267585Y163449D02*
X266954D01*
Y162818D01*
X267332Y163071D01*
X267585Y163449D01*
D02*
G37*
G36*
X264414D02*
X263783D01*
X264036Y163071D01*
X264414Y162818D01*
Y163449D01*
D02*
G37*
G36*
X258695D02*
X258064D01*
Y162818D01*
X258442Y163071D01*
X258695Y163449D01*
D02*
G37*
G36*
X255524D02*
X254893D01*
X255146Y163071D01*
X255524Y162818D01*
Y163449D01*
D02*
G37*
G36*
X249551D02*
X248920D01*
Y162818D01*
X249298Y163071D01*
X249551Y163449D01*
D02*
G37*
G36*
X246380D02*
X245749D01*
X246002Y163071D01*
X246380Y162818D01*
Y163449D01*
D02*
G37*
G36*
X238629D02*
X237998D01*
Y162818D01*
X238376Y163071D01*
X238629Y163449D01*
D02*
G37*
G36*
X235458D02*
X234827D01*
X235080Y163071D01*
X235458Y162818D01*
Y163449D01*
D02*
G37*
G36*
X180095Y162048D02*
Y161417D01*
X180725D01*
X180473Y161795D01*
X180095Y162048D01*
D02*
G37*
G36*
X177554D02*
X177176Y161795D01*
X176924Y161417D01*
X177554D01*
Y162048D01*
D02*
G37*
G36*
X171073D02*
Y161417D01*
X171704D01*
X171451Y161795D01*
X171073Y162048D01*
D02*
G37*
G36*
X168533D02*
X168155Y161795D01*
X167903Y161417D01*
X168533D01*
Y162048D01*
D02*
G37*
G36*
X180725Y158877D02*
X180095D01*
Y158246D01*
X180473Y158499D01*
X180725Y158877D01*
D02*
G37*
G36*
X177554D02*
X176924D01*
X177176Y158499D01*
X177554Y158246D01*
Y158877D01*
D02*
G37*
G36*
X171704D02*
X171073D01*
Y158246D01*
X171451Y158499D01*
X171704Y158877D01*
D02*
G37*
G36*
X168533D02*
X167903D01*
X168155Y158499D01*
X168533Y158246D01*
Y158877D01*
D02*
G37*
G36*
X170819Y153920D02*
Y153289D01*
X171450D01*
X171197Y153667D01*
X170819Y153920D01*
D02*
G37*
G36*
X168279D02*
X167901Y153667D01*
X167649Y153289D01*
X168279D01*
Y153920D01*
D02*
G37*
G36*
X171450Y150749D02*
X170819D01*
Y150118D01*
X171197Y150371D01*
X171450Y150749D01*
D02*
G37*
G36*
X168279D02*
X167649D01*
X167901Y150371D01*
X168279Y150118D01*
Y150749D01*
D02*
G37*
G36*
X171073Y145538D02*
Y144907D01*
X171704D01*
X171451Y145285D01*
X171073Y145538D01*
D02*
G37*
G36*
X168533D02*
X168155Y145285D01*
X167903Y144907D01*
X168533D01*
Y145538D01*
D02*
G37*
G36*
X171704Y142367D02*
X171073D01*
Y141736D01*
X171451Y141989D01*
X171704Y142367D01*
D02*
G37*
G36*
X168533D02*
X167903D01*
X168155Y141989D01*
X168533Y141736D01*
Y142367D01*
D02*
G37*
G36*
X223266Y162556D02*
Y161925D01*
X223897D01*
X223644Y162303D01*
X223266Y162556D01*
D02*
G37*
G36*
X220726D02*
X220348Y162303D01*
X220095Y161925D01*
X220726D01*
Y162556D01*
D02*
G37*
G36*
X211836Y162048D02*
Y161417D01*
X212467D01*
X212214Y161795D01*
X211836Y162048D01*
D02*
G37*
G36*
X209296D02*
X208918Y161795D01*
X208665Y161417D01*
X209296D01*
Y162048D01*
D02*
G37*
G36*
X199136D02*
Y161417D01*
X199767D01*
X199514Y161795D01*
X199136Y162048D01*
D02*
G37*
G36*
X196596D02*
X196218Y161795D01*
X195965Y161417D01*
X196596D01*
Y162048D01*
D02*
G37*
G36*
X223897Y159385D02*
X223266D01*
Y158754D01*
X223644Y159007D01*
X223897Y159385D01*
D02*
G37*
G36*
X220726D02*
X220095D01*
X220348Y159007D01*
X220726Y158754D01*
Y159385D01*
D02*
G37*
G36*
X212467Y158877D02*
X211836D01*
Y158246D01*
X212214Y158499D01*
X212467Y158877D01*
D02*
G37*
G36*
X209296D02*
X208665D01*
X208918Y158499D01*
X209296Y158246D01*
Y158877D01*
D02*
G37*
G36*
X199767D02*
X199136D01*
Y158246D01*
X199514Y158499D01*
X199767Y158877D01*
D02*
G37*
G36*
X196596D02*
X195965D01*
X196218Y158499D01*
X196596Y158246D01*
Y158877D01*
D02*
G37*
G36*
X191901Y153412D02*
Y152781D01*
X192532D01*
X192279Y153159D01*
X191901Y153412D01*
D02*
G37*
G36*
X189361D02*
X188983Y153159D01*
X188731Y152781D01*
X189361D01*
Y153412D01*
D02*
G37*
G36*
X192532Y150241D02*
X191901D01*
Y149610D01*
X192279Y149863D01*
X192532Y150241D01*
D02*
G37*
G36*
X189361D02*
X188731D01*
X188983Y149863D01*
X189361Y149610D01*
Y150241D01*
D02*
G37*
G36*
X191901Y142490D02*
Y141859D01*
X192532D01*
X192279Y142237D01*
X191901Y142490D01*
D02*
G37*
G36*
X189361D02*
X188983Y142237D01*
X188731Y141859D01*
X189361D01*
Y142490D01*
D02*
G37*
G36*
X208782Y153065D02*
X202552D01*
Y140335D01*
X208782D01*
Y153065D01*
D02*
G37*
G36*
X192532Y139319D02*
X191901D01*
Y138688D01*
X192279Y138941D01*
X192532Y139319D01*
D02*
G37*
G36*
X189361D02*
X188731D01*
X188983Y138941D01*
X189361Y138688D01*
Y139319D01*
D02*
G37*
G36*
X191901Y131314D02*
Y130683D01*
X192532D01*
X192279Y131061D01*
X191901Y131314D01*
D02*
G37*
G36*
X189361D02*
X188983Y131061D01*
X188731Y130683D01*
X189361D01*
Y131314D01*
D02*
G37*
G36*
X192532Y128143D02*
X191901D01*
Y127512D01*
X192279Y127765D01*
X192532Y128143D01*
D02*
G37*
G36*
X189361D02*
X188731D01*
X188983Y127765D01*
X189361Y127512D01*
Y128143D01*
D02*
G37*
G36*
X208782Y137795D02*
X202552D01*
Y125065D01*
X208782D01*
Y137795D01*
D02*
G37*
%LPD*%
D10*
X320214Y231394D02*
D03*
X310214D02*
D03*
X58340Y330200D02*
D03*
X48340D02*
D03*
X138383Y331343D02*
D03*
X148383D02*
D03*
D11*
X322453Y213670D02*
D03*
Y220670D02*
D03*
D12*
X254508Y182921D02*
D03*
Y203921D02*
D03*
D13*
X182760Y201549D02*
D03*
X167760D02*
D03*
X61715Y266446D02*
D03*
X76715D02*
D03*
X82684Y350139D02*
D03*
X67684D02*
D03*
D14*
X61370Y295959D02*
D03*
D15*
X67870D02*
D03*
X74370D02*
D03*
X80870Y295959D02*
D03*
D16*
X61370Y317959D02*
D03*
X67870D02*
D03*
X74370D02*
D03*
X80870D02*
D03*
D17*
X28829Y295776D02*
D03*
Y310776D02*
D03*
X132080Y48013D02*
D03*
Y33013D02*
D03*
X156464Y48267D02*
D03*
Y33267D02*
D03*
X27813Y332352D02*
D03*
Y347352D02*
D03*
X181610Y48267D02*
D03*
Y33267D02*
D03*
D18*
X223780Y176403D02*
D03*
Y169903D02*
D03*
Y182903D02*
D03*
X205480D02*
D03*
Y169903D02*
D03*
Y176403D02*
D03*
X214630Y171553D02*
D03*
Y181253D02*
D03*
D19*
X46834Y61689D02*
D03*
Y56689D02*
D03*
Y51689D02*
D03*
Y46689D02*
D03*
Y41689D02*
D03*
X90834Y61689D02*
D03*
Y56689D02*
D03*
Y51689D02*
D03*
Y46689D02*
D03*
Y41689D02*
D03*
D20*
X158910Y184919D02*
D03*
Y179919D02*
D03*
Y174919D02*
D03*
Y169919D02*
D03*
X178910D02*
D03*
Y174919D02*
D03*
Y179919D02*
D03*
Y184919D02*
D03*
D21*
X168910Y177419D02*
D03*
D22*
X210052Y139065D02*
D03*
X241052D02*
D03*
D23*
X299974Y173095D02*
D03*
Y204095D02*
D03*
D24*
X106553Y39544D02*
D03*
Y29544D02*
D03*
D25*
X334899Y234103D02*
Y254889D01*
X325120Y264668D02*
X334899Y254889D01*
X300355Y264668D02*
X325120D01*
X158910Y139159D02*
X169418Y128651D01*
X199638D02*
X210052Y139065D01*
X169418Y128651D02*
X199638D01*
X158910Y139159D02*
Y165133D01*
D26*
X95250Y333375D02*
X99314Y329311D01*
Y110617D02*
Y329311D01*
X94234Y350139D02*
X95885Y348488D01*
X67684Y318145D02*
Y350139D01*
X74168Y331851D02*
X74370Y331649D01*
X39631Y347352D02*
X42545Y350266D01*
X27813Y347352D02*
X39631D01*
X82684Y350139D02*
X94234D01*
X82684Y319773D02*
Y350139D01*
X80870Y317959D02*
X82684Y319773D01*
X67684Y318145D02*
X67870Y317959D01*
X51943Y337521D02*
Y340360D01*
X60198Y355600D02*
X62395D01*
X56881Y358917D02*
X60198Y355600D01*
X12334Y358917D02*
X56881D01*
X6858Y353441D02*
X12334Y358917D01*
X6858Y162179D02*
Y353441D01*
X28829Y279273D02*
X32893Y275209D01*
X28829Y279273D02*
Y295776D01*
X76715Y266446D02*
X89027D01*
X88900Y266319D02*
X89027Y266446D01*
X58928Y251587D02*
X61715Y254374D01*
Y266446D01*
X74370Y268791D02*
X76715Y266446D01*
X74370Y268791D02*
Y295959D01*
X61314Y295903D02*
X61370Y295847D01*
Y287938D02*
Y295847D01*
X49022Y275590D02*
X61370Y287938D01*
X49022Y254381D02*
Y275590D01*
Y254381D02*
X52324Y251079D01*
X59436D01*
X223780Y182903D02*
X254490D01*
X254508Y182921D01*
X223780Y176403D02*
X229108D01*
X182760Y199114D02*
Y201549D01*
X158910Y184919D02*
Y192699D01*
X167760Y201549D01*
X61314Y295903D02*
X61370Y295959D01*
X111506Y51689D02*
X121158Y61341D01*
X153162D01*
X156464Y58039D01*
Y48267D02*
Y58039D01*
X90834Y51689D02*
X111506D01*
X90834Y46689D02*
X130756D01*
X132080Y48013D01*
X106266Y61689D02*
X113538Y68961D01*
X174752D01*
X181610Y62103D01*
Y48267D02*
Y62103D01*
X90834Y41689D02*
X113378D01*
X122054Y33013D01*
X132080D01*
X26162Y63373D02*
X32258D01*
X33942Y61689D02*
X46834D01*
X32258Y63373D02*
X33942Y61689D01*
X74370Y317959D02*
Y331649D01*
X31750Y51689D02*
X46834D01*
X23622Y43561D02*
X31750Y51689D01*
X36910Y46689D02*
X46834D01*
X32766Y42545D02*
X36910Y46689D01*
X32766Y30353D02*
Y42545D01*
X20066Y17653D02*
X32766Y30353D01*
X6858Y162179D02*
X20066Y148971D01*
X45466Y225171D02*
X66802D01*
X90834Y61689D02*
X106266D01*
X81360Y56689D02*
X90834D01*
X81360D02*
Y57025D01*
X80024Y58361D02*
X81360Y57025D01*
X32258Y212979D02*
X63500D01*
X20066Y225171D02*
X32258Y212979D01*
X77978Y51689D02*
X90834D01*
X74944Y54723D02*
X77978Y51689D01*
X74596Y46689D02*
X90834D01*
X20066Y199771D02*
X32766Y187071D01*
X20066Y123571D02*
X45466D01*
X58928Y251587D02*
X59436Y251079D01*
X67310Y53975D02*
X74596Y46689D01*
X67870Y284151D02*
Y295959D01*
X129540Y179959D02*
X154482D01*
X154522Y179919D02*
X158910D01*
X136652Y173863D02*
X145796D01*
X146852Y174919D02*
X158910D01*
X145796Y173863D02*
X146852Y174919D01*
X14304Y56689D02*
X46834D01*
X11430Y59563D02*
X14304Y56689D01*
X11430Y59563D02*
Y67945D01*
X20828Y77343D01*
X59182D01*
X95250Y333375D02*
Y333883D01*
X139192Y219583D02*
Y355981D01*
X115316Y195707D02*
X139192Y219583D01*
X115316Y85979D02*
Y195707D01*
Y85979D02*
X126492Y74803D01*
X189230D01*
X199136Y64897D01*
Y39751D02*
Y64897D01*
X192652Y33267D02*
X199136Y39751D01*
X181610Y33267D02*
X192652D01*
X191556Y174919D02*
X199540Y182903D01*
X205480D01*
X178910Y169919D02*
X194289D01*
X200774Y176403D01*
X205480D01*
X193802Y183007D02*
Y188072D01*
X178910Y179919D02*
X190714D01*
X193802Y183007D01*
X178910Y174919D02*
X191556D01*
X178910Y184919D02*
X187078D01*
X168910Y177419D02*
X171410Y174919D01*
X178910D01*
X46834Y35785D02*
Y41689D01*
X67766Y284151D02*
X67870D01*
X32766Y187071D02*
X59436D01*
X67310Y179197D01*
Y53975D02*
Y179197D01*
X45466Y199771D02*
X64262D01*
X74944Y189089D01*
Y54723D02*
Y189089D01*
X63500Y212979D02*
X80024Y196455D01*
Y58361D02*
Y196455D01*
X66802Y225171D02*
X90834Y201139D01*
Y62249D02*
Y201139D01*
X51943Y337521D02*
X53753Y335711D01*
X57403D01*
X58340Y334775D01*
Y320989D02*
X61370Y317959D01*
X58340Y320989D02*
Y330200D01*
Y334775D01*
X182760Y199114D02*
X193802Y188072D01*
X187078Y184919D02*
X187706Y185547D01*
X181356Y33013D02*
X181610Y33267D01*
X132080Y33013D02*
X181356D01*
D27*
X28956Y310903D02*
X49142D01*
X27813Y311792D02*
Y332352D01*
D28*
X205480Y143637D02*
Y169903D01*
Y143637D02*
X210052Y139065D01*
D29*
X313436Y95123D02*
X365252Y43307D01*
X228854Y95123D02*
X313436D01*
X210052Y113925D02*
X228854Y95123D01*
X210052Y113925D02*
Y139065D01*
X363474Y237363D02*
Y322199D01*
D30*
X345122Y231966D02*
D03*
D31*
X211020Y187418D02*
D03*
D32*
X158877Y167005D02*
D03*
D33*
X300355Y264668D02*
D03*
X86614Y284353D02*
D03*
X117094Y288036D02*
D03*
X42545Y350266D02*
D03*
X97282D02*
D03*
X32893Y275209D02*
D03*
X89027Y266446D02*
D03*
X30861Y254254D02*
D03*
X234442Y304927D02*
D03*
X268351Y305435D02*
D03*
X307086D02*
D03*
X365125Y186690D02*
D03*
X364363Y150749D02*
D03*
X365760Y116967D02*
D03*
X163957Y100076D02*
D03*
X116967Y263017D02*
D03*
D34*
X268732Y233299D02*
D03*
X300990Y234188D02*
D03*
X268986Y221107D02*
D03*
X251333Y221234D02*
D03*
X222758Y203835D02*
D03*
X198120Y203581D02*
D03*
X210058Y203835D02*
D03*
X198120Y193929D02*
D03*
X210058Y193421D02*
D03*
X220218Y193675D02*
D03*
X190631Y129413D02*
D03*
Y140589D02*
D03*
Y151511D02*
D03*
X197866Y160147D02*
D03*
X210566D02*
D03*
X221996Y160655D02*
D03*
X209550Y215519D02*
D03*
X197612Y215265D02*
D03*
X222250Y215519D02*
D03*
X236728Y164719D02*
D03*
X247650D02*
D03*
X256794D02*
D03*
X265684D02*
D03*
X169803Y160147D02*
D03*
X178825D02*
D03*
X169549Y152019D02*
D03*
X169803Y143637D02*
D03*
X214630Y181911D02*
D03*
X214757Y170815D02*
D03*
X45466Y324866D02*
D03*
X99314Y110617D02*
D03*
X74168Y331851D02*
D03*
X51943Y340360D02*
D03*
X229108Y176403D02*
D03*
X26162Y63373D02*
D03*
X59436Y251079D02*
D03*
X129540Y179959D02*
D03*
X136652Y173863D02*
D03*
X49142Y310903D02*
D03*
X59182Y77343D02*
D03*
X95250Y333883D02*
D03*
X67766Y284151D02*
D03*
X187706Y185547D02*
D03*
D35*
X365252Y43307D02*
D03*
X255778Y18669D02*
D03*
X281178D02*
D03*
X306578D02*
D03*
X20066Y43053D02*
D03*
X139192Y355981D02*
D03*
X20066Y225171D02*
D03*
Y199771D02*
D03*
Y174371D02*
D03*
Y148971D02*
D03*
Y123571D02*
D03*
Y98171D02*
D03*
X45466Y225171D02*
D03*
Y199771D02*
D03*
Y174371D02*
D03*
Y148971D02*
D03*
Y123571D02*
D03*
X363474Y347599D02*
D03*
D36*
X365252Y17907D02*
D03*
X20066Y17653D02*
D03*
X45466Y98171D02*
D03*
X363474Y322199D02*
D03*
D37*
X230378Y18669D02*
D03*
X164592Y355981D02*
D03*
D38*
X168910Y177419D02*
D03*
M02*
