G04 Layer_Color=8388736*
%FSLAX44Y44*%
%MOMM*%
G71*
G01*
G75*
%ADD18R,0.4700X0.3500*%
%ADD45R,0.8032X0.7032*%
%ADD46R,0.5032X0.7032*%
%ADD47R,3.6032X1.5032*%
%ADD48R,1.3032X1.6032*%
%ADD49R,0.6532X1.6032*%
%ADD50R,0.6532X1.6032*%
%ADD51R,0.6532X1.6032*%
%ADD52R,1.6032X1.3032*%
%ADD53R,0.6732X0.5532*%
%ADD54R,1.6032X0.5532*%
%ADD55R,0.7032X0.5032*%
%ADD56R,1.1032X1.5032*%
%ADD57R,1.7032X3.0032*%
%ADD58R,3.0032X1.7032*%
%ADD59R,0.7032X0.8032*%
%ADD60C,0.9652*%
%ADD61C,0.6604*%
%ADD62C,1.7032*%
%ADD63R,1.7032X1.7032*%
%ADD64R,1.7032X1.7032*%
%ADD65C,0.8032*%
G36*
X220263Y186112D02*
X220394Y186087D01*
X220520Y186044D01*
X220639Y185985D01*
X220750Y185911D01*
X220850Y185823D01*
X220938Y185723D01*
X221012Y185612D01*
X221071Y185493D01*
X221113Y185366D01*
X221140Y185236D01*
X221148Y185103D01*
Y177403D01*
X221140Y177270D01*
X221113Y177139D01*
X221071Y177013D01*
X221012Y176894D01*
X220938Y176783D01*
X220850Y176683D01*
X220750Y176595D01*
X220639Y176521D01*
X220520Y176462D01*
X220394Y176420D01*
X220310Y176403D01*
X220394Y176387D01*
X220520Y176344D01*
X220639Y176285D01*
X220750Y176211D01*
X220850Y176123D01*
X220938Y176023D01*
X221012Y175912D01*
X221071Y175793D01*
X221113Y175667D01*
X221140Y175536D01*
X221148Y175403D01*
Y167703D01*
X221140Y167570D01*
X221113Y167439D01*
X221071Y167313D01*
X221012Y167194D01*
X220938Y167083D01*
X220850Y166983D01*
X220750Y166895D01*
X220639Y166821D01*
X220520Y166762D01*
X220394Y166719D01*
X220263Y166693D01*
X220130Y166685D01*
X209130D01*
X208997Y166693D01*
X208867Y166719D01*
X208740Y166762D01*
X208621Y166821D01*
X208510Y166895D01*
X208410Y166983D01*
X208322Y167083D01*
X208248Y167194D01*
X208189Y167313D01*
X208146Y167439D01*
X208120Y167570D01*
X208112Y167703D01*
Y175403D01*
X208120Y175536D01*
X208146Y175667D01*
X208189Y175793D01*
X208248Y175912D01*
X208322Y176023D01*
X208410Y176123D01*
X208510Y176211D01*
X208621Y176285D01*
X208740Y176344D01*
X208867Y176387D01*
X208950Y176403D01*
X208867Y176420D01*
X208740Y176462D01*
X208621Y176521D01*
X208510Y176595D01*
X208410Y176683D01*
X208322Y176783D01*
X208248Y176894D01*
X208189Y177013D01*
X208146Y177139D01*
X208120Y177270D01*
X208112Y177403D01*
Y185103D01*
X208120Y185236D01*
X208146Y185366D01*
X208189Y185493D01*
X208248Y185612D01*
X208322Y185723D01*
X208410Y185823D01*
X208510Y185911D01*
X208621Y185985D01*
X208740Y186044D01*
X208867Y186087D01*
X208997Y186112D01*
X209130Y186121D01*
X220130D01*
X220263Y186112D01*
D02*
G37*
D18*
X214630Y171553D02*
D03*
Y181253D02*
D03*
D45*
X320214Y231394D02*
D03*
X310214D02*
D03*
X58340Y330200D02*
D03*
X48340D02*
D03*
X138383Y331343D02*
D03*
X148383D02*
D03*
D46*
X322453Y213670D02*
D03*
Y220670D02*
D03*
D47*
X254508Y182921D02*
D03*
Y203921D02*
D03*
D48*
X182760Y201549D02*
D03*
X167760D02*
D03*
X61715Y266446D02*
D03*
X76715D02*
D03*
X82684Y350139D02*
D03*
X67684D02*
D03*
D49*
X61370Y295959D02*
D03*
D50*
X67870D02*
D03*
X74370D02*
D03*
X80870Y295959D02*
D03*
D51*
X61370Y317959D02*
D03*
X67870D02*
D03*
X74370D02*
D03*
X80870D02*
D03*
D52*
X28829Y295776D02*
D03*
Y310776D02*
D03*
X132080Y48013D02*
D03*
Y33013D02*
D03*
X156464Y48267D02*
D03*
Y33267D02*
D03*
X27813Y332352D02*
D03*
Y347352D02*
D03*
X181610Y48267D02*
D03*
Y33267D02*
D03*
D53*
X223780Y176403D02*
D03*
Y169903D02*
D03*
Y182903D02*
D03*
X205480D02*
D03*
Y169903D02*
D03*
Y176403D02*
D03*
D54*
X46834Y61689D02*
D03*
Y56689D02*
D03*
Y51689D02*
D03*
Y46689D02*
D03*
Y41689D02*
D03*
X90834Y61689D02*
D03*
Y56689D02*
D03*
Y51689D02*
D03*
Y46689D02*
D03*
Y41689D02*
D03*
D55*
X158910Y184919D02*
D03*
Y179919D02*
D03*
Y174919D02*
D03*
Y169919D02*
D03*
X178910D02*
D03*
Y174919D02*
D03*
Y179919D02*
D03*
Y184919D02*
D03*
D56*
X168910Y177419D02*
D03*
D57*
X210052Y139065D02*
D03*
X241052D02*
D03*
D58*
X299974Y173095D02*
D03*
Y204095D02*
D03*
D59*
X106553Y39544D02*
D03*
Y29544D02*
D03*
D60*
X300355Y264668D02*
D03*
X86614Y284353D02*
D03*
X117094Y288036D02*
D03*
X42545Y350266D02*
D03*
X97282D02*
D03*
X32893Y275209D02*
D03*
X89027Y266446D02*
D03*
X30861Y254254D02*
D03*
X234442Y304927D02*
D03*
X268351Y305435D02*
D03*
X307086D02*
D03*
X365125Y186690D02*
D03*
X364363Y150749D02*
D03*
X365760Y116967D02*
D03*
X163957Y100076D02*
D03*
X116967Y263017D02*
D03*
D61*
X268732Y233299D02*
D03*
X300990Y234188D02*
D03*
X268986Y221107D02*
D03*
X251333Y221234D02*
D03*
X222758Y203835D02*
D03*
X198120Y203581D02*
D03*
X210058Y203835D02*
D03*
X198120Y193929D02*
D03*
X210058Y193421D02*
D03*
X220218Y193675D02*
D03*
X190631Y129413D02*
D03*
Y140589D02*
D03*
Y151511D02*
D03*
X197866Y160147D02*
D03*
X210566D02*
D03*
X221996Y160655D02*
D03*
X209550Y215519D02*
D03*
X197612Y215265D02*
D03*
X222250Y215519D02*
D03*
X236728Y164719D02*
D03*
X247650D02*
D03*
X256794D02*
D03*
X265684D02*
D03*
X169803Y160147D02*
D03*
X178825D02*
D03*
X169549Y152019D02*
D03*
X169803Y143637D02*
D03*
X214630Y181911D02*
D03*
X214757Y170815D02*
D03*
X45466Y324866D02*
D03*
X99314Y110617D02*
D03*
X74168Y331851D02*
D03*
X51943Y340360D02*
D03*
X229108Y176403D02*
D03*
X26162Y63373D02*
D03*
X59436Y251079D02*
D03*
X129540Y179959D02*
D03*
X136652Y173863D02*
D03*
X49142Y310903D02*
D03*
X59182Y77343D02*
D03*
X95250Y333883D02*
D03*
X67766Y284151D02*
D03*
X187706Y185547D02*
D03*
D62*
X365252Y43307D02*
D03*
X255778Y18669D02*
D03*
X281178D02*
D03*
X306578D02*
D03*
X20066Y43053D02*
D03*
X139192Y355981D02*
D03*
X20066Y225171D02*
D03*
Y199771D02*
D03*
Y174371D02*
D03*
Y148971D02*
D03*
Y123571D02*
D03*
Y98171D02*
D03*
X45466Y225171D02*
D03*
Y199771D02*
D03*
Y174371D02*
D03*
Y148971D02*
D03*
Y123571D02*
D03*
X363474Y347599D02*
D03*
D63*
X365252Y17907D02*
D03*
X20066Y17653D02*
D03*
X45466Y98171D02*
D03*
X363474Y322199D02*
D03*
D64*
X230378Y18669D02*
D03*
X164592Y355981D02*
D03*
D65*
X168910Y177419D02*
D03*
M02*
