G04 Layer_Color=255*
%FSLAX44Y44*%
%MOMM*%
G71*
G01*
G75*
%ADD33C,0.7620*%
%ADD34C,0.4572*%
%ADD35C,1.5000*%
%ADD36R,1.5000X1.5000*%
%ADD37R,1.5000X1.5000*%
D33*
X300355Y264668D02*
D03*
X86614Y284353D02*
D03*
X117094Y288036D02*
D03*
X42545Y350266D02*
D03*
X97282D02*
D03*
X32893Y275209D02*
D03*
X89027Y266446D02*
D03*
X30861Y254254D02*
D03*
X234442Y304927D02*
D03*
X268351Y305435D02*
D03*
X307086D02*
D03*
X365125Y186690D02*
D03*
X364363Y150749D02*
D03*
X365760Y116967D02*
D03*
X163957Y100076D02*
D03*
X116967Y263017D02*
D03*
D34*
X268732Y233299D02*
D03*
X300990Y234188D02*
D03*
X268986Y221107D02*
D03*
X251333Y221234D02*
D03*
X222758Y203835D02*
D03*
X198120Y203581D02*
D03*
X210058Y203835D02*
D03*
X198120Y193929D02*
D03*
X210058Y193421D02*
D03*
X220218Y193675D02*
D03*
X190631Y129413D02*
D03*
Y140589D02*
D03*
Y151511D02*
D03*
X197866Y160147D02*
D03*
X210566D02*
D03*
X221996Y160655D02*
D03*
X209550Y215519D02*
D03*
X197612Y215265D02*
D03*
X222250Y215519D02*
D03*
X236728Y164719D02*
D03*
X247650D02*
D03*
X256794D02*
D03*
X265684D02*
D03*
X169803Y160147D02*
D03*
X178825D02*
D03*
X169549Y152019D02*
D03*
X169803Y143637D02*
D03*
X214630Y181911D02*
D03*
X214757Y170815D02*
D03*
X45466Y324866D02*
D03*
D35*
X365252Y43307D02*
D03*
X255778Y18669D02*
D03*
X281178D02*
D03*
X306578D02*
D03*
X20066Y43053D02*
D03*
X139192Y355981D02*
D03*
X20066Y225171D02*
D03*
Y199771D02*
D03*
Y174371D02*
D03*
Y148971D02*
D03*
Y123571D02*
D03*
Y98171D02*
D03*
X45466Y225171D02*
D03*
Y199771D02*
D03*
Y174371D02*
D03*
Y148971D02*
D03*
Y123571D02*
D03*
X363474Y347599D02*
D03*
D36*
X365252Y17907D02*
D03*
X20066Y17653D02*
D03*
X45466Y98171D02*
D03*
X363474Y322199D02*
D03*
D37*
X230378Y18669D02*
D03*
X164592Y355981D02*
D03*
M02*
