G04 Layer_Color=2752767*
%FSLAX44Y44*%
%MOMM*%
G71*
G01*
G75*
%ADD66C,0.0508*%
%ADD68C,0.0677*%
D66*
X298323Y262636D02*
Y266700D01*
X302387D01*
Y262636D01*
X298323D01*
X84582Y282321D02*
Y286385D01*
X88646D01*
Y282321D01*
X84582D01*
X115062Y286004D02*
Y290068D01*
X119126D01*
Y286004D01*
X115062D01*
X40513Y348234D02*
Y352298D01*
X44577D01*
Y348234D01*
X40513D01*
X95250D02*
Y352298D01*
X99314D01*
Y348234D01*
X95250D01*
X30861Y273177D02*
Y277241D01*
X34925D01*
Y273177D01*
X30861D01*
X86995Y264414D02*
Y268478D01*
X91059D01*
Y264414D01*
X86995D01*
X365252Y41275D02*
X363220Y45339D01*
X367284D01*
X365252Y41275D01*
Y15875D02*
X363220Y19939D01*
X367284D01*
X365252Y15875D01*
X230378Y16637D02*
X228346Y20701D01*
X232410D01*
X230378Y16637D01*
X255778D02*
X253746Y20701D01*
X257810D01*
X255778Y16637D01*
X281178D02*
X279146Y20701D01*
X283210D01*
X281178Y16637D01*
X306578D02*
X304546Y20701D01*
X308610D01*
X306578Y16637D01*
X20066Y41021D02*
X18034Y45085D01*
X22098D01*
X20066Y41021D01*
Y15621D02*
X18034Y19685D01*
X22098D01*
X20066Y15621D01*
X139192Y353949D02*
X137160Y358013D01*
X141224D01*
X139192Y353949D01*
X164592D02*
X162560Y358013D01*
X166624D01*
X164592Y353949D01*
X20066Y223139D02*
X18034Y227203D01*
X22098D01*
X20066Y223139D01*
Y197739D02*
X18034Y201803D01*
X22098D01*
X20066Y197739D01*
Y172339D02*
X18034Y176403D01*
X22098D01*
X20066Y172339D01*
Y146939D02*
X18034Y151003D01*
X22098D01*
X20066Y146939D01*
Y121539D02*
X18034Y125603D01*
X22098D01*
X20066Y121539D01*
Y96139D02*
X18034Y100203D01*
X22098D01*
X20066Y96139D01*
X45466Y223139D02*
X43434Y227203D01*
X47498D01*
X45466Y223139D01*
Y197739D02*
X43434Y201803D01*
X47498D01*
X45466Y197739D01*
Y172339D02*
X43434Y176403D01*
X47498D01*
X45466Y172339D01*
Y146939D02*
X43434Y151003D01*
X47498D01*
X45466Y146939D01*
Y121539D02*
X43434Y125603D01*
X47498D01*
X45466Y121539D01*
Y96139D02*
X43434Y100203D01*
X47498D01*
X45466Y96139D01*
X363474Y345567D02*
X361442Y349631D01*
X365506D01*
X363474Y345567D01*
Y320167D02*
X361442Y324231D01*
X365506D01*
X363474Y320167D01*
X28829Y252222D02*
Y256286D01*
X32893D01*
Y252222D01*
X28829D01*
X232410Y302895D02*
Y306959D01*
X236474D01*
Y302895D01*
X232410D01*
X266319Y303403D02*
Y307467D01*
X270383D01*
Y303403D01*
X266319D01*
X305054D02*
Y307467D01*
X309118D01*
Y303403D01*
X305054D01*
X363093Y184658D02*
Y188722D01*
X367157D01*
Y184658D01*
X363093D01*
X362331Y148717D02*
Y152781D01*
X366395D01*
Y148717D01*
X362331D01*
X363728Y114935D02*
Y118999D01*
X367792D01*
Y114935D01*
X363728D01*
X161925Y98044D02*
Y102108D01*
X165989D01*
Y98044D01*
X161925D01*
X114935Y260985D02*
Y265049D01*
X118999D01*
Y260985D01*
X114935D01*
X168910Y175387D02*
X169926Y176403D01*
X170942D01*
X169926Y177419D01*
X170942Y178435D01*
X169926D01*
X168910Y179451D01*
X167894Y178435D01*
X166878D01*
X167894Y177419D01*
X166878Y176403D01*
X167894D01*
X168910Y175387D01*
D68*
X270764Y233299D02*
G03*
X270764Y233299I-2032J0D01*
G01*
X303022Y234188D02*
G03*
X303022Y234188I-2032J0D01*
G01*
X271018Y221107D02*
G03*
X271018Y221107I-2032J0D01*
G01*
X253365Y221234D02*
G03*
X253365Y221234I-2032J0D01*
G01*
X224790Y203835D02*
G03*
X224790Y203835I-2032J0D01*
G01*
X200152Y203581D02*
G03*
X200152Y203581I-2032J0D01*
G01*
X212090Y203835D02*
G03*
X212090Y203835I-2032J0D01*
G01*
X200152Y193929D02*
G03*
X200152Y193929I-2032J0D01*
G01*
X212090Y193421D02*
G03*
X212090Y193421I-2032J0D01*
G01*
X222250Y193675D02*
G03*
X222250Y193675I-2032J0D01*
G01*
X192663Y129413D02*
G03*
X192663Y129413I-2032J0D01*
G01*
Y140589D02*
G03*
X192663Y140589I-2032J0D01*
G01*
Y151511D02*
G03*
X192663Y151511I-2032J0D01*
G01*
X199898Y160147D02*
G03*
X199898Y160147I-2032J0D01*
G01*
X212598D02*
G03*
X212598Y160147I-2032J0D01*
G01*
X224028Y160655D02*
G03*
X224028Y160655I-2032J0D01*
G01*
X211582Y215519D02*
G03*
X211582Y215519I-2032J0D01*
G01*
X199644Y215265D02*
G03*
X199644Y215265I-2032J0D01*
G01*
X224282Y215519D02*
G03*
X224282Y215519I-2032J0D01*
G01*
X238760Y164719D02*
G03*
X238760Y164719I-2032J0D01*
G01*
X249682D02*
G03*
X249682Y164719I-2032J0D01*
G01*
X258826D02*
G03*
X258826Y164719I-2032J0D01*
G01*
X267716D02*
G03*
X267716Y164719I-2032J0D01*
G01*
X171835Y160147D02*
G03*
X171835Y160147I-2032J0D01*
G01*
X180856D02*
G03*
X180856Y160147I-2032J0D01*
G01*
X171581Y152019D02*
G03*
X171581Y152019I-2032J0D01*
G01*
X171835Y143637D02*
G03*
X171835Y143637I-2032J0D01*
G01*
X216662Y181911D02*
G03*
X216662Y181911I-2032J0D01*
G01*
X216789Y170815D02*
G03*
X216789Y170815I-2032J0D01*
G01*
X47498Y324866D02*
G03*
X47498Y324866I-2032J0D01*
G01*
X101346Y110617D02*
G03*
X101346Y110617I-2032J0D01*
G01*
X76200Y331851D02*
G03*
X76200Y331851I-2032J0D01*
G01*
X53975Y340360D02*
G03*
X53975Y340360I-2032J0D01*
G01*
X231140Y176403D02*
G03*
X231140Y176403I-2032J0D01*
G01*
X28194Y63373D02*
G03*
X28194Y63373I-2032J0D01*
G01*
X61468Y251079D02*
G03*
X61468Y251079I-2032J0D01*
G01*
X131572Y179959D02*
G03*
X131572Y179959I-2032J0D01*
G01*
X138684Y173863D02*
G03*
X138684Y173863I-2032J0D01*
G01*
X51174Y310903D02*
G03*
X51174Y310903I-2032J0D01*
G01*
X61214Y77343D02*
G03*
X61214Y77343I-2032J0D01*
G01*
X97282Y333883D02*
G03*
X97282Y333883I-2032J0D01*
G01*
X69798Y284151D02*
G03*
X69798Y284151I-2032J0D01*
G01*
X189738Y185547D02*
G03*
X189738Y185547I-2032J0D01*
G01*
M02*
